<?xml version="1.0" standalone="no"?>
<!DOCTYPE svg PUBLIC "-//W3C//DTD SVG 1.1//EN" "http://www.w3.org/Graphics/SVG/1.1/DTD/svg11.dtd" >
<svg xmlns="http://www.w3.org/2000/svg" xmlns:xlink="http://www.w3.org/1999/xlink" version="1.1">
<metadata>
Created by FontForge 20161003 at Mon Feb 27 23:23:48 2017
 By www-data
Copyright (c) 2008 by Dmitri Lavrow &#38; Ralph du Carrois.. All rights reserved. 2009 New Edition of Russian Letters by Letterhead Studio.
</metadata>
<defs>
<font id="RussianRailGPro-Extended" horiz-adv-x="700" >
  <font-face 
    font-family="RussianRail G Pro Extended"
    font-weight="400"
    font-stretch="normal"
    units-per-em="1000"
    panose-1="2 11 5 6 4 0 0 2 0 4"
    ascent="772"
    descent="-228"
    x-height="504"
    cap-height="708"
    bbox="-79 -228 1118 972"
    underline-thickness="50"
    underline-position="-100"
    stemh="96"
    stemv="108"
    unicode-range="U+000D-FB02"
  />
<missing-glyph horiz-adv-x="664" 
d="M86 0v708h492v-708h-492zM152 66h360v576h-360v-576z" />
    <glyph glyph-name="fi" unicode="fi" horiz-adv-x="682" 
d="M494 486l72 18h30v-504h-102v486zM530 720h30c60 0 60 -36 60 -60v-12c0 -24 0 -60 -60 -60h-30c-60 0 -60 36 -60 60v12c0 24 0 60 60 60zM212 0h-102v420h-90v84h90v24c0 60 0 192 162 192c18 0 48 0 120 -18v-96h-24l-72 18h-6c-78 0 -78 0 -78 -84v-36h156v-84h-156
v-420z" />
    <glyph glyph-name="fl" unicode="fl" horiz-adv-x="676" 
d="M488 708l72 18h30v-552c0 -78 0 -78 36 -129l-76 -57c-61 86 -62 88 -62 186v534zM212 0h-102v420h-90v84h90v24c0 60 0 192 162 192c18 0 48 0 120 -18v-96h-24l-72 18h-6c-78 0 -78 0 -78 -84v-36h156v-84h-156v-420z" />
    <glyph glyph-name=".notdef" horiz-adv-x="664" 
d="M86 0v708h492v-708h-492zM152 66h360v576h-360v-576z" />
    <glyph glyph-name=".null" horiz-adv-x="0" 
 />
    <glyph glyph-name=".null" horiz-adv-x="0" 
 />
    <glyph glyph-name="CR" unicode="&#xd;" horiz-adv-x="360" 
 />
    <glyph glyph-name="space" unicode=" " horiz-adv-x="290" 
 />
    <glyph glyph-name="exclam" unicode="!" horiz-adv-x="340" 
d="M140 144h48c60 0 60 -36 60 -60v-24c0 -24 0 -60 -60 -60h-48c-60 0 -60 36 -60 60v24c0 24 0 60 60 60zM116 240v162l-6 24c-18 73 -18 138 -18 210c0 36 0 84 60 84h24c60 0 60 -48 60 -84c0 -72 0 -137 -18 -210l-6 -24v-162h-96z" />
    <glyph glyph-name="quotedbl" unicode="&#x22;" horiz-adv-x="580" 
d="M98 540v252c0 24 0 60 54 60h24c54 0 54 -36 54 -60v-48c-36 -144 -36 -144 -36 -204h-96zM350 540v252c0 24 0 60 54 60h24c54 0 54 -36 54 -60v-48c-36 -144 -36 -144 -36 -204h-96z" />
    <glyph glyph-name="numbersign" unicode="#" 
d="M216 0h-102l32 192h-106v84h120l26 156h-106v84h120l32 192h102l-32 -192h150l32 192h102l-32 -192h106v-84h-120l-26 -156h106v-84h-120l-32 -192h-102l32 192h-150zM288 432l-26 -156h150l26 156h-150z" />
    <glyph glyph-name="dollar" unicode="$" 
d="M430 618h-50v-215l36 -9c120 -30 222 -56 222 -202c0 -78 0 -208 -252 -208v-104h-72v104c-42 0 -105 7 -228 38v104h36l148 -36h50v215l-36 9c-120 30 -222 56 -222 202c0 78 0 208 252 208v104h72v-104c42 0 105 -7 228 -38v-104h-36zM268 431l52 -13v200h-15
c-125 0 -125 0 -125 -90c0 -75 0 -75 88 -97zM432 277l-52 13v-200h15c125 0 125 0 125 90c0 75 0 75 -88 97z" />
    <glyph glyph-name="percent" unicode="%" 
d="M332 570v-30c0 -142 -102 -142 -156 -142h-12c-54 0 -156 0 -156 142v30c0 142 102 142 156 142h12c54 0 156 0 156 -142zM110 564v-18c0 -72 0 -72 60 -72s60 0 60 72v18c0 72 0 72 -60 72s-60 0 -60 -72zM692 168v-30c0 -142 -102 -142 -156 -142h-12
c-54 0 -156 0 -156 142v30c0 142 102 142 156 142h12c54 0 156 0 156 -142zM470 162v-18c0 -72 0 -72 60 -72s60 0 60 72v18c0 72 0 72 -60 72s-60 0 -60 -72zM602 708v-24c0 -68 -36 -116 -72 -164l-264 -352c-54 -71 -54 -71 -54 -144v-24h-114v24c0 68 36 116 72 164
l264 352c54 71 54 71 54 144v24h114z" />
    <glyph glyph-name="ampersand" unicode="&#x26;" horiz-adv-x="790" 
d="M440 306v96h312v-96h-84v-120c0 -72 0 -72 54 -144l-84 -63l-60 80c-100 -75 -216 -75 -264 -75c-234 0 -234 136 -234 202c0 36 0 128 112 156v22c-112 30 -112 122 -112 158c0 66 0 202 294 202c36 0 94 0 246 -38v-104h-36l-144 36h-126c-108 0 -108 0 -108 -108
s0 -108 108 -108h30v-96h-30c-108 0 -108 0 -108 -108s0 -108 108 -108h78l168 42v174h-120z" />
    <glyph glyph-name="quotesingle" unicode="'" horiz-adv-x="328" 
d="M98 540v252c0 24 0 60 54 60h24c54 0 54 -36 54 -60v-48c-36 -144 -36 -144 -36 -204h-96z" />
    <glyph glyph-name="parenleft" unicode="(" horiz-adv-x="340" 
d="M380 -204h-102c-192 144 -192 300 -192 444v144c0 144 0 300 192 444h102v-36c-180 -135 -180 -135 -180 -324v-312c0 -189 0 -189 180 -324v-36z" />
    <glyph glyph-name="parenright" unicode=")" horiz-adv-x="340" 
d="M74 -204h-102v36c180 135 180 135 180 324v312c0 189 0 189 -180 324v36h102c192 -144 192 -300 192 -444v-144c0 -144 0 -300 -192 -444z" />
    <glyph glyph-name="asterisk" unicode="*" horiz-adv-x="520" 
d="M278 612h-36c0 -64 -24 -96 -60 -144h-90v28l87 116h-135v72h135l-87 116v28h90c36 -48 60 -80 60 -144h36c0 64 24 96 60 144h90v-28l-87 -116h135v-72h-135l87 -116v-28h-90c-36 48 -60 80 -60 144z" />
    <glyph glyph-name="plus" unicode="+" 
d="M314 54v198h-210v66h210v198h72v-198h210v-66h-210v-198h-72z" />
    <glyph glyph-name="comma" unicode="," horiz-adv-x="340" 
d="M116 -156l33 132v24h-9c-60 0 -60 36 -60 60v24c0 24 0 60 60 60h30c90 0 90 -72 90 -96v-12c0 -84 -54 -156 -90 -204h-54v12z" />
    <glyph glyph-name="hyphen" unicode="-" horiz-adv-x="340" 
d="M20 330h300v-90h-300v90z" />
    <glyph glyph-name="period" unicode="." horiz-adv-x="340" 
d="M140 144h48c60 0 60 -36 60 -60v-24c0 -24 0 -60 -60 -60h-48c-60 0 -60 36 -60 60v24c0 24 0 60 60 60z" />
    <glyph glyph-name="slash" unicode="/" 
d="M602 708v-24c0 -74 -36 -122 -72 -170l-264 -352c-54 -71 -54 -71 -54 -138v-24h-114v24c0 74 36 122 72 170l264 352c54 71 54 71 54 138v24h114z" />
    <glyph glyph-name="zero" unicode="0" 
d="M338 724h24c144 0 282 -4 282 -340v-60c0 -340 -138 -340 -282 -340h-24c-144 0 -282 0 -282 340v60c0 336 138 340 282 340zM170 366v-24c0 -258 0 -258 180 -258s180 0 180 258v24c0 258 0 258 -180 258s-180 0 -180 -258z" />
    <glyph glyph-name="one" unicode="1" 
d="M92 0v96h228v498h-228v54l240 60h90v-612h186v-96h-516z" />
    <glyph glyph-name="two" unicode="2" 
d="M346 724c276 0 276 -124 276 -209c0 -95 0 -184 -204 -235l-168 -42c-72 -18 -72 -18 -72 -96v-46h432v-96h-528v142c0 72 0 155 156 194l120 30c150 38 150 48 150 150c0 108 0 108 -162 108c-140 0 -140 0 -176 -138l-92 24v6c0 48 0 208 268 208z" />
    <glyph glyph-name="three" unicode="3" 
d="M368 318c-24 0 -62 0 -102 -30l-66 88l284 213v23h-314v-96h-90v192h516v-84c0 -53 0 -53 -148 -164l-56 -42v-22h32c64 0 196 0 196 -180v-24c0 -54 0 -208 -264 -208c-48 0 -124 0 -276 38v98h36l144 -36h84c162 0 162 0 162 120c0 114 0 114 -138 114z" />
    <glyph glyph-name="four" unicode="4" 
d="M440 144h-390v120l108 144c150 200 150 200 150 288v12h114v-24c0 -82 -36 -130 -102 -218l-156 -208v-24h276v246l72 18h30v-264h108v-90h-108v-144h-102v144z" />
    <glyph glyph-name="five" unicode="5" 
d="M620 240v-24c0 -102 0 -232 -264 -232c-48 0 -124 0 -276 38v98h36l144 -36h84c162 0 162 0 162 144s0 144 -156 144c-138 0 -138 0 -162 -84l-96 24v396h492v-96h-402v-174c120 30 174 30 216 30c222 0 222 -138 222 -228z" />
    <glyph glyph-name="six" unicode="6" 
d="M506 720v-36l-324 -243l18 -24c28 21 68 51 186 51h26c226 0 226 -132 226 -228v-24c0 -96 0 -232 -264 -232h-48c-264 0 -264 148 -264 256c0 120 0 240 177 372l145 108h122zM374 372c-198 0 -198 -12 -198 -144c0 -144 0 -144 174 -144s174 0 174 144s0 144 -150 144z
" />
    <glyph glyph-name="seven" unicode="7" 
d="M80 708h540v-72c0 -116 0 -116 -48 -180l-132 -176c-60 -80 -60 -80 -60 -232v-48h-114v48c0 108 0 160 78 264l180 240v60h-354v-96h-90v192z" />
    <glyph glyph-name="eight" unicode="8" 
d="M504 380v-24c128 -32 128 -128 128 -164c0 -84 0 -208 -282 -208s-282 124 -282 184c0 48 0 128 128 160v24c-128 32 -128 128 -128 164c0 84 0 208 282 208s282 -124 282 -184c0 -48 0 -128 -128 -160zM248 434l168 -42l48 36c60 45 60 45 60 106c0 90 0 90 -174 90
s-174 0 -174 -90c0 -82 0 -82 72 -100zM452 274l-168 42l-48 -36c-60 -45 -60 -45 -60 -106c0 -90 0 -90 174 -90s174 0 174 90c0 82 0 82 -72 100z" />
    <glyph glyph-name="nine" unicode="9" 
d="M368 724c264 0 264 -136 264 -315v-61c0 -204 0 -364 -288 -364c-30 0 -100 0 -252 38v98h36l144 -36h48c198 0 198 0 198 192v8c-20 -15 -60 -44 -186 -44h-24c-240 0 -240 132 -240 228v24c0 84 0 232 264 232h36zM326 336c192 0 192 0 192 144s0 144 -168 144
c-174 0 -174 0 -174 -144s0 -144 150 -144z" />
    <glyph glyph-name="colon" unicode=":" horiz-adv-x="340" 
d="M140 504h48c60 0 60 -36 60 -60v-24c0 -24 0 -60 -60 -60h-48c-60 0 -60 36 -60 60v24c0 24 0 60 60 60zM140 144h48c60 0 60 -36 60 -60v-24c0 -24 0 -60 -60 -60h-48c-60 0 -60 36 -60 60v24c0 24 0 60 60 60z" />
    <glyph glyph-name="semicolon" unicode=";" horiz-adv-x="340" 
d="M116 -156l33 132v24h-9c-60 0 -60 36 -60 60v24c0 24 0 60 60 60h30c90 0 90 -72 90 -96v-12c0 -84 -54 -156 -90 -204h-54v12zM140 504h48c60 0 60 -36 60 -60v-24c0 -24 0 -60 -60 -60h-48c-60 0 -60 36 -60 60v24c0 24 0 60 60 60z" />
    <glyph glyph-name="less" unicode="&#x3c;" 
d="M498 563l40 -52l-302 -226l302 -226l-40 -52l-340 254v48z" />
    <glyph glyph-name="equal" unicode="=" 
d="M80 252h540v-66h-540v66zM80 384h540v-66h-540v66z" />
    <glyph glyph-name="greater" unicode="&#x3e;" 
d="M202 7l-40 52l302 226l-302 226l40 52l340 -254v-48z" />
    <glyph glyph-name="question" unicode="?" horiz-adv-x="580" 
d="M230 144h48c60 0 60 -36 60 -60v-24c0 -24 0 -60 -60 -60h-48c-60 0 -60 36 -60 60v24c0 24 0 60 60 60zM296 724c222 0 222 -124 222 -172c0 -60 0 -103 -140 -208l-76 -57v-47h-96v96l48 36c144 108 144 108 144 168c0 84 0 84 -102 84h-84l-144 -36h-36v98
c152 38 216 38 264 38z" />
    <glyph glyph-name="at" unicode="@" horiz-adv-x="1168" 
d="M200 314v-122c0 -270 0 -270 246 -270h36l168 42h36v-96c-168 -38 -228 -42 -288 -42c-306 0 -306 150 -306 348v156c0 234 0 378 354 378h276c354 0 354 -144 354 -378v-30c0 -174 0 -288 -222 -288c-48 0 -108 0 -153 60l-27 36c-48 -36 -96 -72 -186 -72
c-138 0 -164 80 -164 147c0 27 4 52 7 69l5 30c16 95 39 234 242 234c54 0 130 0 166 -48l48 36h35l-46 -276c-7 -43 -12 -72 -12 -92c0 -40 21 -40 85 -40c114 0 114 0 114 132v120c0 270 0 270 -384 270s-384 0 -384 -304zM446 270c-8 -49 -14 -81 -14 -103
c0 -41 21 -41 81 -41c69 0 69 0 157 66l36 216c-72 18 -72 18 -104 18c-130 0 -130 0 -156 -156z" />
    <glyph glyph-name="A" unicode="A" horiz-adv-x="772" 
d="M282 708h208l268 -670v-38h-104l-72 180h-392l-72 -180h-104v38zM334 612c0 -72 -24 -132 -108 -342h320c-84 210 -108 270 -108 342h-104z" />
    <glyph glyph-name="B" unicode="B" horiz-adv-x="772" 
d="M464 306h-252v-210h252c108 0 108 0 108 105s0 105 -108 105zM464 612h-252v-210h252c108 0 108 0 108 105s0 105 -108 105zM386 0h-282v708h282c186 0 306 0 306 -192c0 -24 0 -130 -88 -152v-20c88 -22 88 -128 88 -152c0 -192 -120 -192 -306 -192z" />
    <glyph glyph-name="C" unicode="C" horiz-adv-x="736" 
d="M686 500l-104 -26c-36 144 -36 144 -196 144c-192 0 -192 0 -192 -246v-36c0 -246 0 -246 252 -246h42l144 36h36v-104c-152 -38 -222 -38 -282 -38c-312 0 -312 172 -312 340v60c0 156 0 340 294 340h36c282 0 282 -154 282 -224z" />
    <glyph glyph-name="D" unicode="D" horiz-adv-x="802" 
d="M212 612v-516h156c240 0 240 0 240 258s0 258 -240 258h-156zM104 0v708h156c348 0 468 0 468 -354s-120 -354 -468 -354h-156z" />
    <glyph glyph-name="E" unicode="E" horiz-adv-x="694" 
d="M104 0v708h528v-96h-420v-210h354v-96h-354v-210h420v-96h-528z" />
    <glyph glyph-name="F" unicode="F" horiz-adv-x="676" 
d="M104 0v708h528v-96h-420v-234h354v-96h-354v-282h-108z" />
    <glyph glyph-name="G" unicode="G" horiz-adv-x="784" 
d="M422 402h270v-402h-33l-51 68c-112 -84 -222 -84 -270 -84c-264 0 -264 196 -264 340v60c0 144 0 340 312 340c60 0 130 0 282 -38v-104h-36l-144 36h-42c-252 0 -252 0 -252 -246v-36c0 -246 0 -246 192 -246h24l168 42v174h-156v96z" />
    <glyph glyph-name="H" unicode="H" horiz-adv-x="808" 
d="M596 402v306h108v-708h-108v306h-384v-306h-108v708h108v-306h384z" />
    <glyph glyph-name="I" unicode="I" horiz-adv-x="316" 
d="M212 0h-108v708h108v-708z" />
    <glyph glyph-name="J" unicode="J" horiz-adv-x="586" 
d="M254 -16c-234 0 -234 148 -234 176l112 28c26 -104 26 -104 122 -104c126 0 126 0 126 132v492h108v-468c0 -132 0 -256 -234 -256z" />
    <glyph glyph-name="K" unicode="K" horiz-adv-x="760" 
d="M722 672l-239 -318l239 -318v-36h-120c-126 168 -192 256 -192 306h-198v-306h-108v708h108v-306h198c0 50 66 138 192 306h120v-36z" />
    <glyph glyph-name="L" unicode="L" horiz-adv-x="598" 
d="M584 0h-480v708h108v-612h372v-96z" />
    <glyph glyph-name="M" unicode="M" horiz-adv-x="1072" 
d="M104 708h207c207 -552 207 -552 207 -612h36c0 60 0 60 207 612h207v-708h-108v612h-42c0 -52 0 -52 -210 -612h-144c-210 560 -210 560 -210 612h-42v-612h-108v708z" />
    <glyph glyph-name="N" unicode="N" horiz-adv-x="832" 
d="M586 132h38v576h104v-708h-144c-302 453 -338 507 -338 576h-38v-576h-104v708h144c302 -453 338 -507 338 -576z" />
    <glyph glyph-name="O" unicode="O" horiz-adv-x="844" 
d="M386 724h72c312 0 312 -184 312 -340v-60c0 -156 0 -340 -312 -340h-72c-312 0 -312 184 -312 340v60c0 156 0 340 312 340zM194 366v-24c0 -252 1 -252 228 -252c228 0 228 1 228 252v24c0 252 -1 252 -228 252c-228 0 -228 -1 -228 -252z" />
    <glyph glyph-name="P" unicode="P" horiz-adv-x="748" 
d="M212 612v-300h210c156 0 156 0 156 150s0 150 -156 150h-210zM104 0v708h246c228 0 342 0 342 -246s-114 -246 -342 -246h-138v-216h-108z" />
    <glyph glyph-name="Q" unicode="Q" horiz-adv-x="844" 
d="M581 -144v-36h-120c-36 48 -90 108 -90 180c-297 0 -297 156 -297 324v60c0 156 0 340 312 340h72c312 0 312 -184 312 -340v-60c0 -168 0 -324 -297 -324zM194 366v-24c0 -246 0 -246 228 -246s228 0 228 246v24c0 252 0 252 -228 252s-228 0 -228 -252z" />
    <glyph glyph-name="R" unicode="R" horiz-adv-x="778" 
d="M212 612v-276h218c144 0 144 0 144 138s0 138 -144 138h-218zM554 260l168 -224v-36h-120c-84 112 -135 180 -135 240h-255v-240h-108v708h230c240 0 360 0 360 -222c0 -121 -36 -148 -140 -226z" />
    <glyph glyph-name="S" unicode="S" horiz-adv-x="724" 
d="M272 434l168 -42c120 -30 220 -55 220 -200c0 -78 0 -208 -286 -208c-60 0 -130 0 -282 38v104h36l144 -36h156c112 0 112 0 112 90c0 72 0 72 -88 94l-168 42c-120 30 -220 55 -220 200c0 78 0 208 286 208c60 0 130 0 282 -38v-104h-36l-144 36h-156
c-112 0 -112 0 -112 -90c0 -72 0 -72 88 -94z" />
    <glyph glyph-name="T" unicode="T" horiz-adv-x="664" 
d="M14 708h636v-96h-264v-612h-108v612h-264v96z" />
    <glyph glyph-name="U" unicode="U" horiz-adv-x="832" 
d="M734 708v-420c0 -144 0 -304 -288 -304h-60c-288 0 -288 160 -288 304v420h108v-408c0 -210 0 -210 210 -210s210 0 210 210v408h108z" />
    <glyph glyph-name="V" unicode="V" horiz-adv-x="748" 
d="M480 0h-212c-230 575 -230 575 -230 708h108v-108c174 -435 174 -435 174 -504h108c0 69 0 69 174 504v108h108c0 -133 0 -133 -230 -708z" />
    <glyph glyph-name="W" unicode="W" horiz-adv-x="1108" 
d="M476 600h162c147 -441 147 -441 147 -504h51c0 72 0 72 108 504v108h108c0 -120 0 -120 -147 -708h-181c-144 432 -144 432 -144 504h-52c0 -72 0 -72 -144 -504h-181c-147 588 -147 588 -147 708h114v-108c108 -432 108 -432 108 -504h51c0 63 0 63 147 504z" />
    <glyph glyph-name="X" unicode="X" horiz-adv-x="784" 
d="M38 36l239 318l-239 318v36h120c126 -168 192 -256 192 -306h84c0 50 66 138 192 306h120v-36l-239 -318l239 -318v-36h-120c-126 168 -192 256 -192 306h-84c0 -50 -66 -138 -192 -306h-120v36z" />
    <glyph glyph-name="Y" unicode="Y" horiz-adv-x="724" 
d="M716 672l-300 -400v-272h-108v272l-300 400v36h120c126 -168 192 -256 192 -306h84c0 50 66 138 192 306h120v-36z" />
    <glyph glyph-name="Z" unicode="Z" horiz-adv-x="724" 
d="M656 708v-132l-456 -456l8 -32c96 20 244 20 400 20h48v-108h-588v132l456 456l-8 32c-96 -20 -244 -20 -400 -20h-48v108h588z" />
    <glyph glyph-name="bracketleft" unicode="[" horiz-adv-x="340" 
d="M314 -132v-72h-234v1032h234v-72h-126v-888h126z" />
    <glyph glyph-name="backslash" unicode="\" 
d="M98 684v24h114v-24c0 -67 0 -67 54 -138l264 -352c36 -48 72 -96 72 -170v-24h-114v24c0 67 0 67 -54 138l-264 352c-36 48 -72 96 -72 170z" />
    <glyph glyph-name="bracketright" unicode="]" horiz-adv-x="340" 
d="M26 756v72h234v-1032h-234v72h126v888h-126z" />
    <glyph glyph-name="asciicircum" unicode="^" 
d="M80 374l246 334h48l246 -334v-38h-56l-214 290l-214 -290h-56v38z" />
    <glyph glyph-name="underscore" unicode="_" 
d="M-22 -102h744v-66h-744v66z" />
    <glyph glyph-name="grave" unicode="`" horiz-adv-x="364" 
d="M344 600v-30h-48c-84 0 -140 42 -276 144v36h124z" />
    <glyph glyph-name="a" unicode="a" horiz-adv-x="622" 
d="M502 -12l-51 68c-24 -18 -91 -68 -215 -68c-180 0 -180 96 -180 144c0 78 0 162 252 162h132c0 126 0 126 -132 126h-90l-96 -24h-24v96c96 24 174 24 210 24c234 0 234 -120 234 -240v-84c0 -99 0 -99 36 -147zM170 144c0 -60 0 -60 72 -60h54l144 36v96h-132
c-138 0 -138 0 -138 -72z" />
    <glyph glyph-name="b" unicode="b" horiz-adv-x="664" 
d="M188 726v-270c80 60 174 60 198 60c216 0 216 -144 216 -240v-48c0 -84 0 -240 -252 -240c-36 0 -152 0 -188 48l-48 -36h-28v708l72 18h30zM494 252c0 168 0 168 -162 168l-144 -36v-288c48 -12 90 -12 114 -12c192 0 192 0 192 168z" />
    <glyph glyph-name="c" unicode="c" horiz-adv-x="592" 
d="M308 -12c-246 0 -246 132 -246 240v48c0 108 0 240 222 240h48c210 0 210 -120 210 -168l-96 -24c-24 96 -24 96 -138 96c-138 0 -138 0 -138 -168s0 -168 174 -168h53l97 24h24v-96c-96 -24 -174 -24 -210 -24z" />
    <glyph glyph-name="d" unicode="d" horiz-adv-x="664" 
d="M476 708l72 18h30v-534c0 -99 0 -99 36 -147l-76 -57l-51 68c-24 -18 -91 -68 -209 -68c-216 0 -216 144 -216 240v48c0 84 0 240 228 240c84 0 138 -12 186 -24v216zM170 252c0 -168 0 -168 162 -168l144 36v288c-48 12 -108 12 -144 12c-162 0 -162 0 -162 -168z" />
    <glyph glyph-name="e" unicode="e" horiz-adv-x="616" 
d="M308 84h90l96 24h24v-96c-96 -24 -168 -24 -210 -24c-246 0 -246 132 -246 240v48c0 96 0 240 222 240h48c222 0 222 -144 222 -240v-48l-24 -6c-54 -12 -78 -12 -222 -12h-138c0 -126 0 -126 138 -126zM170 288h276c0 132 0 132 -138 132s-138 0 -138 -132z" />
    <glyph glyph-name="f" unicode="f" horiz-adv-x="388" 
d="M212 0h-102v420h-90v84h90v24c0 60 0 192 162 192c18 0 48 0 120 -18v-96h-24l-72 18h-6c-78 0 -78 0 -78 -84v-36h156v-84h-156v-420z" />
    <glyph glyph-name="g" unicode="g" horiz-adv-x="610" 
d="M332 516c216 0 216 -102 216 -150c0 -90 0 -174 -222 -174h-60c-96 0 -96 0 -96 -52c0 -38 0 -38 96 -38h60c84 0 216 0 216 -144c0 -66 0 -174 -228 -174c-60 0 -144 0 -240 24v96h24l96 -24h144c96 0 96 0 96 60s0 60 -96 60h-96c-168 0 -168 78 -168 106
c0 46 30 86 66 134v12c-24 6 -84 20 -84 114c0 47 0 150 204 150c0 76 36 120 90 192h108v-24zM302 426c-132 0 -132 0 -132 -72s0 -72 132 -72s132 0 132 72s0 72 -132 72z" />
    <glyph glyph-name="h" unicode="h" horiz-adv-x="664" 
d="M188 726v-270c80 60 174 60 198 60c198 0 198 -144 198 -222v-294h-102v264c0 156 0 156 -150 156l-144 -36v-384h-102v708l72 18h30z" />
    <glyph glyph-name="i" unicode="i" horiz-adv-x="274" 
d="M86 486l72 18h30v-504h-102v486zM122 720h30c60 0 60 -36 60 -60v-12c0 -24 0 -60 -60 -60h-30c-60 0 -60 36 -60 60v12c0 24 0 60 60 60z" />
    <glyph glyph-name="j" unicode="j" horiz-adv-x="274" 
d="M188 504v-432c0 -132 0 -180 -138 -284l-56 74c92 72 92 72 92 174v450l72 18h30zM122 720h30c60 0 60 -36 60 -60v-12c0 -24 0 -60 -60 -60h-30c-60 0 -60 36 -60 60v12c0 24 0 60 60 60z" />
    <glyph glyph-name="k" unicode="k" horiz-adv-x="640" 
d="M86 708l72 18h30v-426h120c150 0 150 0 150 156v48h108v-48c0 -138 0 -138 -120 -228l150 -200v-28h-114c-72 96 -114 152 -114 204h-180v-204h-102v708z" />
    <glyph glyph-name="l" unicode="l" horiz-adv-x="268" 
d="M80 708l72 18h30v-552c0 -78 0 -78 36 -129l-76 -57c-61 86 -62 88 -62 186v534z" />
    <glyph glyph-name="m" unicode="m" horiz-adv-x="988" 
d="M908 324v-324h-102v312c0 108 0 108 -114 108l-144 -36v-384h-102v312c0 108 0 108 -114 108l-144 -36v-384h-102v504h48l42 -56c32 24 98 68 198 68c105 0 138 -40 156 -68c32 24 98 68 198 68c180 0 180 -126 180 -192z" />
    <glyph glyph-name="n" unicode="n" horiz-adv-x="664" 
d="M584 276v-276h-102v264c0 156 0 156 -150 156l-144 -36v-384h-102v504h48l42 -56c48 36 114 68 204 68c204 0 204 -132 204 -240z" />
    <glyph glyph-name="o" unicode="o" horiz-adv-x="652" 
d="M170 252c0 -168 0 -168 156 -168s156 0 156 168s0 168 -156 168s-156 0 -156 -168zM62 228v48c0 96 0 240 240 240h48c240 0 240 -144 240 -240v-48c0 -96 0 -240 -240 -240h-48c-240 0 -240 144 -240 240z" />
    <glyph glyph-name="p" unicode="p" horiz-adv-x="664" 
d="M86 504h48l42 -56c24 18 90 68 210 68c216 0 216 -144 216 -240v-48c0 -84 0 -240 -228 -240c-90 0 -138 12 -186 24v-216h-102v708zM494 252c0 168 0 168 -162 168l-144 -36v-288c48 -12 108 -12 144 -12c162 0 162 0 162 168z" />
    <glyph glyph-name="q" unicode="q" horiz-adv-x="664" 
d="M476 -204v252c-80 -60 -186 -60 -210 -60c-204 0 -204 144 -204 240v48c0 84 0 240 252 240c36 0 152 0 188 -48l48 36h28v-708h-102zM170 252c0 -168 0 -168 162 -168l144 36v288c-48 12 -90 12 -114 12c-192 0 -192 0 -192 -168z" />
    <glyph glyph-name="r" unicode="r" horiz-adv-x="550" 
d="M86 504h48l42 -56c48 36 114 68 186 68c168 0 168 -132 168 -168l-96 -24c-24 96 -24 96 -102 96l-144 -36v-384h-102v504z" />
    <glyph glyph-name="s" unicode="s" horiz-adv-x="544" 
d="M194 84h120c78 0 78 0 78 54c0 35 0 35 -66 51l-108 27c-60 15 -168 39 -168 144c0 54 0 156 228 156c48 0 96 0 192 -24v-96h-24l-96 24h-120c-78 0 -78 0 -78 -54c0 -35 0 -35 66 -51l108 -27c60 -15 168 -39 168 -144c0 -54 0 -156 -228 -156c-48 0 -96 0 -192 24v96
h24z" />
    <glyph glyph-name="t" unicode="t" horiz-adv-x="484" 
d="M110 630l72 18h30v-144h228v-84h-228v-240c0 -98 0 -98 102 -98h6l96 26h24v-96c-96 -24 -126 -24 -162 -24c-168 0 -168 108 -168 180v252h-90v84h90v126z" />
    <glyph glyph-name="u" unicode="u" horiz-adv-x="664" 
d="M538 -12l-51 68c-24 -18 -91 -68 -209 -68c-198 0 -198 132 -198 240v276h102v-264c0 -156 0 -156 150 -156l144 36v384h102v-312c0 -99 0 -99 36 -147z" />
    <glyph glyph-name="v" unicode="v" horiz-adv-x="568" 
d="M248 90h72c0 54 0 54 108 324v90h108c0 -104 0 -104 -160 -504h-184c-160 400 -160 400 -160 504h108v-90c108 -270 108 -270 108 -324z" />
    <glyph glyph-name="w" unicode="w" horiz-adv-x="856" 
d="M446 336h-36c0 -48 0 -48 -96 -336h-178c-80 405 -80 405 -80 504h102v-78c60 -300 60 -300 60 -336h36c0 30 0 30 102 336h147c102 -306 102 -306 102 -336h36c0 36 0 36 60 336v78h99c0 -99 0 -99 -80 -504h-178c-96 288 -96 288 -96 336z" />
    <glyph glyph-name="x" unicode="x" horiz-adv-x="610" 
d="M152 0h-114v28l168 224l-168 224v28h114c72 -96 114 -152 114 -204h78c0 52 42 108 114 204h114v-28l-168 -224l168 -224v-28h-114c-72 96 -114 152 -114 204h-78c0 -52 -42 -108 -114 -204z" />
    <glyph glyph-name="y" unicode="y" horiz-adv-x="568" 
d="M248 108h81c0 34 0 34 102 306v90h105c0 -104 0 -104 -150 -504l-39 -104c-42 -112 -123 -112 -201 -112h-12v96h48c57 0 57 0 75 48l36 96h-111c-150 375 -150 375 -150 480h108v-90c108 -270 108 -270 108 -306z" />
    <glyph glyph-name="z" unicode="z" horiz-adv-x="544" 
d="M488 504v-102l-306 -306l5 -20c80 20 175 20 259 20h42v-96h-432v102l306 306l-5 20c-80 -20 -175 -20 -259 -20h-42v96h432z" />
    <glyph glyph-name="braceleft" unicode="{" horiz-adv-x="350" 
d="M96 456c0 180 0 324 192 372h102v-54l-48 -12c-132 -33 -132 -33 -132 -114v-126c0 -126 0 -141 -84 -198v-24c84 -63 84 -78 84 -198v-126c0 -81 0 -81 132 -114l48 -12v-54h-102c-192 48 -192 192 -192 372c0 102 0 102 -84 102h-12v84h12c84 0 84 0 84 102z" />
    <glyph glyph-name="bar" unicode="|" horiz-adv-x="340" 
d="M134 -144v996h72v-996h-72z" />
    <glyph glyph-name="braceright" unicode="}" horiz-adv-x="350" 
d="M254 456c0 -102 0 -102 84 -102h12v-84h-12c-84 0 -84 0 -84 -102c0 -180 0 -324 -192 -372h-102v54l48 12c132 33 132 33 132 114v126c0 120 0 135 84 198v24c-84 57 -84 72 -84 198v126c0 81 0 81 -132 114l-48 12v54h102c192 -48 192 -192 192 -372z" />
    <glyph glyph-name="asciitilde" unicode="~" 
d="M77 228v32c75 100 150 100 174 100s60 0 132 -54c48 -36 48 -36 84 -36c34 0 36 2 84 66h72v-32c-75 -100 -138 -100 -162 -100s-72 0 -144 54c-48 36 -48 36 -84 36c-34 0 -36 -2 -84 -66h-72z" />
    <glyph glyph-name="uni00A0" unicode="&#xa0;" horiz-adv-x="360" 
 />
    <glyph glyph-name="exclamdown" unicode="&#xa1;" horiz-adv-x="340" 
d="M200 360h-48c-60 0 -60 36 -60 60v24c0 24 0 60 60 60h48c60 0 60 -36 60 -60v-24c0 -24 0 -60 -60 -60zM224 264v-162l6 -24c18 -73 18 -138 18 -210c0 -36 0 -84 -60 -84h-24c-60 0 -60 48 -60 84c0 72 0 137 18 210l6 24v162h96z" />
    <glyph glyph-name="cent" unicode="&#xa2;" 
d="M194 252c0 -168 0 -168 150 -168v336c-150 0 -150 0 -150 -168zM410 624v-108c48 0 111 -6 186 -24v-96h-24l-97 24h-71v-336h71l97 24h24v-96c-75 -18 -138 -24 -186 -24v-108h-72v108c-252 0 -252 132 -252 240v48c0 108 0 240 252 240v108h72z" />
    <glyph glyph-name="sterling" unicode="&#xa3;" 
d="M416 724c24 0 94 0 246 -38v-98h-36l-144 36h-48c-156 0 -156 0 -156 -150v-30h228v-60h-228v-60h228v-60h-228v-12c0 -60 0 -84 -36 -132v-24h420v-96h-378c-84 0 -108 0 -132 -18l-60 80c72 54 72 54 72 142v60h-126v60h126v60h-126v60h126v12c0 84 0 268 252 268z" />
    <glyph glyph-name="currency" unicode="&#xa4;" 
d="M542 294v-12c0 -162 -132 -162 -186 -162h-12c-54 0 -186 0 -186 162v12c0 162 132 162 186 162h12c54 0 186 0 186 -162z" />
    <glyph glyph-name="yen" unicode="&#xa5;" 
d="M668 672l-171 -228h129v-60h-174l-45 -60h219v-60h-222v-264h-108v264h-222v60h219l-45 60h-174v60h129l-171 228v36h114c126 -168 162 -216 162 -264h84c0 48 36 96 162 264h114v-36z" />
    <glyph glyph-name="brokenbar" unicode="&#xa6;" horiz-adv-x="340" 
d="M134 468v342h72v-342h-72zM134 -102v342h72v-342h-72z" />
    <glyph glyph-name="section" unicode="&#xa7;" 
d="M90 286c0 54 0 133 116 162v18c-24 6 -84 21 -84 108c0 60 0 150 228 150c48 0 96 0 192 -24v-96h-24l-96 24h-132c-72 0 -72 0 -72 -48c0 -33 0 -33 80 -53l148 -37c73 -18 164 -41 164 -172c0 -54 0 -133 -116 -162v-18c24 -6 84 -21 84 -108c0 -60 0 -150 -228 -150
c-48 0 -96 0 -192 24v96h24l96 -24h132c72 0 72 0 72 48c0 33 0 33 -80 53l-148 37c-73 18 -164 41 -164 172zM194 302c0 -76 0 -76 72 -94h150c90 0 90 0 90 94c0 76 0 76 -72 94h-150c-90 0 -90 0 -90 -94z" />
    <glyph glyph-name="dieresis" unicode="&#xa8;" horiz-adv-x="448" 
d="M80 720h30c60 0 60 -36 60 -60v-12c0 -24 0 -60 -60 -60h-30c-60 0 -60 36 -60 60v12c0 24 0 60 60 60zM338 720h30c60 0 60 -36 60 -60v-12c0 -24 0 -60 -60 -60h-30c-60 0 -60 36 -60 60v12c0 24 0 60 60 60z" />
    <glyph glyph-name="copyright" unicode="&#xa9;" horiz-adv-x="1180" 
d="M1082 393v-186c0 -270 -1 -375 -419 -375h-146c-418 0 -419 105 -419 375v186c0 270 1 375 419 375h146c418 0 419 -105 419 -375zM846 420l-94 -23c-31 121 -31 121 -168 121c-155 0 -155 0 -155 -207v-28c0 -207 0 -207 206 -207h41l121 30h30v-87
c-127 -32 -186 -32 -243 -32c-268 0 -268 145 -268 286v48c0 131 0 286 247 286h36c247 0 247 -130 247 -187zM188 375v-150c0 -318 0 -318 402 -318s402 0 402 318v150c0 318 0 318 -402 318s-402 0 -402 -318z" />
    <glyph glyph-name="ordfeminine" unicode="&#xaa;" horiz-adv-x="448" 
d="M38 252v60h372v-60h-372zM348 366l-38 50c-21 -16 -64 -48 -144 -48c-116 0 -116 66 -116 100c0 40 0 104 176 104h72c0 76 0 76 -80 76h-42l-72 -18h-18v70c80 20 120 20 136 20c152 0 158 -88 158 -148v-76c0 -46 0 -46 29 -84zM140 474c0 -36 0 -36 44 -36h42l72 18
v60h-80c-78 0 -78 0 -78 -42z" />
    <glyph glyph-name="guillemotleft" unicode="&#xab;" horiz-adv-x="604" 
d="M266 0l-180 240v24l180 240h30v-96l-108 -144l18 -24c72 -96 102 -136 102 -204v-36h-42zM494 0l-180 240v24l180 240h30v-96l-108 -144l18 -24c72 -96 102 -136 102 -204v-36h-42z" />
    <glyph glyph-name="logicalnot" unicode="&#xac;" 
d="M80 318h540v-264h-72v198h-468v66z" />
    <glyph glyph-name="uni00AD" unicode="&#xad;" horiz-adv-x="340" 
d="M20 330h300v-90h-300v90z" />
    <glyph glyph-name="registered" unicode="&#xae;" horiz-adv-x="874" 
d="M824 651v-130c0 -231 0 -305 -332 -305h-110c-332 0 -332 68 -332 305v130c0 237 0 305 332 305h110c332 0 332 -74 332 -305zM403 792c162 0 240 0 240 -116c0 -45 -16 -61 -83 -112l101 -147v-33h-98c-55 73 -71 104 -71 159h-142v-159h-96v408h149zM451 723h-101v-111
h101c89 0 89 0 89 57c0 54 0 54 -89 54zM122 638v-104c0 -258 0 -258 315 -258s315 0 315 258v104c0 258 0 258 -315 258s-315 0 -315 -258z" />
    <glyph glyph-name="macron" unicode="&#xaf;" horiz-adv-x="400" 
d="M20 714h360v-94h-360v94z" />
    <glyph glyph-name="degree" unicode="&#xb0;" 
d="M434 702v-12c0 -162 -132 -162 -186 -162h-12c-54 0 -186 0 -186 162v12c0 162 132 162 186 162h12c54 0 186 0 186 -162zM146 708v-24c0 -78 0 -78 96 -78s96 0 96 78v24c0 78 0 78 -96 78s-96 0 -96 -78z" />
    <glyph glyph-name="plusminus" unicode="&#xb1;" 
d="M314 120v132h-210v66h210v198h72v-198h210v-66h-210v-132h-72zM104 66h492v-66h-492v66z" />
    <glyph glyph-name="twosuperior" unicode="&#xb2;" 
d="M236 857c186 0 186 -89 186 -131c0 -48 0 -102 -120 -132l-96 -24c-50 -13 -51 -13 -51 -50v-10h261v-72h-354v82c0 44 0 91 108 118l72 18c84 21 84 21 84 70c0 54 0 54 -96 54c-71 0 -71 0 -92 -84l-88 22v8c0 30 0 131 186 131z" />
    <glyph glyph-name="threesuperior" unicode="&#xb3;" 
d="M275 615c-21 0 -49 0 -77 -19l-46 62l152 114v14h-170v-60h-72v126h354v-54c0 -19 0 -19 -101 -95l-25 -19v-12h19c41 0 125 -1 125 -99v-15c0 -30 0 -123 -186 -123c-22 0 -77 0 -186 22v74h26l103 -21h61c86 0 86 0 86 54c0 51 0 51 -63 51z" />
    <glyph glyph-name="acute" unicode="&#xb4;" horiz-adv-x="364" 
d="M20 570v30l200 150h124v-36c-136 -102 -192 -144 -276 -144h-48z" />
    <glyph glyph-name="mu" unicode="&#xb5;" 
d="M542 294v-12c0 -162 -132 -162 -186 -162h-12c-54 0 -186 0 -186 162v12c0 162 132 162 186 162h12c54 0 186 0 186 -162z" />
    <glyph glyph-name="paragraph" unicode="&#xb6;" 
d="M542 612v-612h-96v630h-84v-630h-96v372h-24c-72 0 -186 0 -186 162v12c0 162 114 162 186 162h318v-24z" />
    <glyph glyph-name="periodcentered" unicode="&#xb7;" horiz-adv-x="340" 
d="M146 354h48c60 0 60 -36 60 -60v-24c0 -24 0 -60 -60 -60h-48c-60 0 -60 36 -60 60v24c0 24 0 60 60 60z" />
    <glyph glyph-name="cedilla" unicode="&#xb8;" horiz-adv-x="334" 
d="M20 -210v66h24l72 -18h66c42 0 42 0 42 27s0 27 -42 27h-72v24l24 96l54 -12v-54h6c48 0 120 0 120 -78c0 -36 0 -96 -156 -96c-12 0 -66 0 -138 18z" />
    <glyph glyph-name="onesuperior" unicode="&#xb9;" 
d="M62 438v72h144v264h-144v45l153 33h75v-342h126v-72h-354z" />
    <glyph glyph-name="ordmasculine" unicode="&#xba;" horiz-adv-x="448" 
d="M134 544c0 -104 0 -104 90 -104s90 0 90 104s0 104 -90 104s-90 0 -90 -104zM48 528v32c0 52 0 160 160 160h32c160 0 160 -108 160 -160v-32c0 -52 0 -160 -160 -160h-32c-160 0 -160 108 -160 160zM38 252v60h372v-60h-372z" />
    <glyph glyph-name="guillemotright" unicode="&#xbb;" horiz-adv-x="604" 
d="M338 504l180 -240v-24l-180 -240h-30v96l108 144l-18 24c-72 96 -102 136 -102 204v36h42zM110 504l180 -240v-24l-180 -240h-30v96l108 144l-18 24c-72 96 -102 136 -102 204v36h42z" />
    <glyph glyph-name="onequarter" unicode="&#xbc;" 
d="M538 72h-258v90l90 120c39 52 39 52 39 113v19h93v-14c0 -62 -18 -86 -42 -118l-93 -124v-14h171v114l48 12h36v-126h76v-72h-76v-72h-84v72zM20 438v72h144v264h-144v45l153 33h75v-342h126v-72h-354z" />
    <glyph glyph-name="onehalf" unicode="&#xbd;" 
d="M20 438v72h144v264h-144v45l153 33h75v-342h126v-72h-354zM488 419c186 0 186 -89 186 -131c0 -48 0 -102 -120 -132l-96 -24c-50 -13 -51 -13 -51 -50v-10h261v-72h-354v82c0 44 0 91 108 118l72 18c84 21 84 21 84 70c0 54 0 54 -96 54c-71 0 -71 0 -92 -84l-88 22v8
c0 30 0 131 186 131z" />
    <glyph glyph-name="threequarters" unicode="&#xbe;" 
d="M538 72h-258v90l90 120c39 52 39 52 39 113v19h93v-14c0 -62 -18 -86 -42 -118l-93 -124v-14h171v114l48 12h36v-126h76v-72h-76v-72h-84v72zM232 615c-21 0 -49 0 -77 -19l-46 62l152 114v14h-170v-60h-72v126h354v-54c0 -19 0 -19 -101 -95l-25 -19v-12h19
c41 0 125 -1 125 -99v-15c0 -30 0 -123 -186 -123c-22 0 -77 0 -186 22v74h26l103 -21h61c86 0 86 0 86 54c0 51 0 51 -63 51z" />
    <glyph glyph-name="questiondown" unicode="&#xbf;" horiz-adv-x="580" 
d="M350 360h-48c-60 0 -60 36 -60 60v24c0 24 0 60 60 60h48c60 0 60 -36 60 -60v-24c0 -24 0 -60 -60 -60zM284 -220c-222 0 -222 124 -222 172c0 60 0 103 140 208l76 57v47h96v-96l-48 -36c-144 -108 -144 -108 -144 -168c0 -84 0 -84 102 -84h84l144 36h36v-98
c-152 -38 -216 -38 -264 -38z" />
    <glyph glyph-name="Agrave" unicode="&#xc0;" horiz-adv-x="772" 
d="M282 708h208l268 -670v-38h-104l-72 180h-392l-72 -180h-104v38zM334 612c0 -72 -24 -132 -108 -342h320c-84 210 -108 270 -108 342h-104zM548 798v-30h-48c-84 0 -140 42 -276 144v36h124z" />
    <glyph glyph-name="Aacute" unicode="&#xc1;" horiz-adv-x="772" 
d="M282 708h208l268 -670v-38h-104l-72 180h-392l-72 -180h-104v38zM334 612c0 -72 -24 -132 -108 -342h320c-84 210 -108 270 -108 342h-104zM224 768v30l200 150h124v-36c-136 -102 -192 -144 -276 -144h-48z" />
    <glyph glyph-name="Acircumflex" unicode="&#xc2;" horiz-adv-x="772" 
d="M282 708h208l268 -670v-38h-104l-72 180h-392l-72 -180h-104v38zM334 612c0 -72 -24 -132 -108 -342h320c-84 210 -108 270 -108 342h-104zM602 798v-30h-48c-54 0 -94 30 -158 78h-20c-64 -48 -104 -78 -158 -78h-48v30l200 150h32z" />
    <glyph glyph-name="Atilde" unicode="&#xc3;" horiz-adv-x="772" 
d="M282 708h208l268 -670v-38h-104l-72 180h-392l-72 -180h-104v38zM334 612c0 -72 -24 -132 -108 -342h320c-84 210 -108 270 -108 342h-104zM353 816l-40 30h-26l-48 -64h-78v36c84 112 126 112 156 112c18 0 46 0 102 -42l40 -30h26l48 64h78v-36
c-84 -112 -126 -112 -156 -112c-18 0 -46 0 -102 42z" />
    <glyph glyph-name="Adieresis" unicode="&#xc4;" horiz-adv-x="772" 
d="M282 708h208l268 -670v-38h-104l-72 180h-392l-72 -180h-104v38zM334 612c0 -72 -24 -132 -108 -342h320c-84 210 -108 270 -108 342h-104zM242 918h30c60 0 60 -36 60 -60v-12c0 -24 0 -60 -60 -60h-30c-60 0 -60 36 -60 60v12c0 24 0 60 60 60zM500 918h30
c60 0 60 -36 60 -60v-12c0 -24 0 -60 -60 -60h-30c-60 0 -60 36 -60 60v12c0 24 0 60 60 60z" />
    <glyph glyph-name="Aring" unicode="&#xc5;" horiz-adv-x="772" 
d="M282 708h208l268 -670v-38h-104l-72 180h-392l-72 -180h-104v38zM334 612c0 -72 -24 -132 -108 -342h320c-84 210 -108 270 -108 342h-104zM368 972h36c132 0 132 -60 132 -84v-36c0 -24 0 -84 -132 -84h-36c-132 0 -132 60 -132 84v36c0 24 0 84 132 84zM410 912h-48
c-42 0 -42 -1 -42 -36v-12c0 -36 1 -36 42 -36h48c42 0 42 1 42 36v12c0 36 -1 36 -42 36z" />
    <glyph glyph-name="AE" unicode="&#xc6;" horiz-adv-x="1048" 
d="M282 708h704v-96h-448l52 -210h330v-96h-305l52 -210h319v-96h-412l-45 180h-339l-72 -180h-104v38zM334 612c0 -72 -24 -132 -108 -342h281c-52 210 -67 270 -67 342h-106z" />
    <glyph glyph-name="Ccedilla" unicode="&#xc7;" horiz-adv-x="736" 
d="M260 -210v66h24l72 -18h66c42 0 42 0 42 27s0 27 -42 27h-72v24l18 72c-294 0 -294 168 -294 336v60c0 156 0 340 294 340h36c282 0 282 -154 282 -224l-104 -26c-36 144 -36 144 -196 144c-192 0 -192 0 -192 -246v-36c0 -246 0 -246 252 -246h42l144 36h36v-104
c-136 -34 -210 -34 -240 -34v-42h6c48 0 120 0 120 -78c0 -36 0 -96 -156 -96c-12 0 -66 0 -138 18z" />
    <glyph glyph-name="Egrave" unicode="&#xc8;" horiz-adv-x="694" 
d="M104 0v708h528v-96h-420v-210h354v-96h-354v-210h420v-96h-528zM497 798v-30h-48c-84 0 -140 42 -276 144v36h124z" />
    <glyph glyph-name="Eacute" unicode="&#xc9;" horiz-adv-x="694" 
d="M104 0v708h528v-96h-420v-210h354v-96h-354v-210h420v-96h-528zM194 768v30l200 150h124v-36c-136 -102 -192 -144 -276 -144h-48z" />
    <glyph glyph-name="Ecircumflex" unicode="&#xca;" horiz-adv-x="694" 
d="M104 0v708h528v-96h-420v-210h354v-96h-354v-210h420v-96h-528zM578 798v-30h-48c-54 0 -94 30 -158 78h-20c-64 -48 -104 -78 -158 -78h-48v30l200 150h32z" />
    <glyph glyph-name="Edieresis" unicode="&#xcb;" horiz-adv-x="694" 
d="M104 0v708h528v-96h-420v-210h354v-96h-354v-210h420v-96h-528zM206 918h30c60 0 60 -36 60 -60v-12c0 -24 0 -60 -60 -60h-30c-60 0 -60 36 -60 60v12c0 24 0 60 60 60zM464 918h30c60 0 60 -36 60 -60v-12c0 -24 0 -60 -60 -60h-30c-60 0 -60 36 -60 60v12
c0 24 0 60 60 60z" />
    <glyph glyph-name="Igrave" unicode="&#xcc;" horiz-adv-x="316" 
d="M212 0h-108v708h108v-708zM308 804v-30h-48c-84 0 -140 42 -276 144v36h124z" />
    <glyph glyph-name="Iacute" unicode="&#xcd;" horiz-adv-x="316" 
d="M212 0h-108v708h108v-708zM8 774v30l200 150h124v-36c-136 -102 -192 -144 -276 -144h-48z" />
    <glyph glyph-name="Icircumflex" unicode="&#xce;" horiz-adv-x="316" 
d="M212 0h-108v708h108v-708zM374 798v-30h-48c-54 0 -94 30 -158 78h-20c-64 -48 -104 -78 -158 -78h-48v30l200 150h32z" />
    <glyph glyph-name="Idieresis" unicode="&#xcf;" horiz-adv-x="316" 
d="M212 0h-108v708h108v-708zM14 918h30c60 0 60 -36 60 -60v-12c0 -24 0 -60 -60 -60h-30c-60 0 -60 36 -60 60v12c0 24 0 60 60 60zM272 918h30c60 0 60 -36 60 -60v-12c0 -24 0 -60 -60 -60h-30c-60 0 -60 36 -60 60v12c0 24 0 60 60 60z" />
    <glyph glyph-name="Eth" unicode="&#xd0;" horiz-adv-x="814" 
d="M26 306v96h90v306h156c348 0 468 0 468 -354s-120 -354 -468 -354h-156v306h-90zM224 612v-210h186v-96h-186v-210h156c240 0 240 0 240 258s0 258 -240 258h-156z" />
    <glyph glyph-name="Ntilde" unicode="&#xd1;" horiz-adv-x="832" 
d="M586 132h38v576h104v-708h-144c-302 453 -338 507 -338 576h-38v-576h-104v708h144c302 -453 338 -507 338 -576zM383 816l-40 30h-26l-48 -64h-78v36c84 112 126 112 156 112c18 0 46 0 102 -42l40 -30h26l48 64h78v-36c-84 -112 -126 -112 -156 -112
c-18 0 -46 0 -102 42z" />
    <glyph glyph-name="Ograve" unicode="&#xd2;" horiz-adv-x="844" 
d="M386 724h72c312 0 312 -184 312 -340v-60c0 -156 0 -340 -312 -340h-72c-312 0 -312 184 -312 340v60c0 156 0 340 312 340zM194 366v-24c0 -252 1 -252 228 -252c228 0 228 1 228 252v24c0 252 -1 252 -228 252c-228 0 -228 -1 -228 -252zM584 798v-30h-48
c-84 0 -140 42 -276 144v36h124z" />
    <glyph glyph-name="Oacute" unicode="&#xd3;" horiz-adv-x="844" 
d="M386 724h72c312 0 312 -184 312 -340v-60c0 -156 0 -340 -312 -340h-72c-312 0 -312 184 -312 340v60c0 156 0 340 312 340zM194 366v-24c0 -252 1 -252 228 -252c228 0 228 1 228 252v24c0 252 -1 252 -228 252c-228 0 -228 -1 -228 -252zM260 768v30l200 150h124v-36
c-136 -102 -192 -144 -276 -144h-48z" />
    <glyph glyph-name="Ocircumflex" unicode="&#xd4;" horiz-adv-x="844" 
d="M386 724h72c312 0 312 -184 312 -340v-60c0 -156 0 -340 -312 -340h-72c-312 0 -312 184 -312 340v60c0 156 0 340 312 340zM194 366v-24c0 -252 1 -252 228 -252c228 0 228 1 228 252v24c0 252 -1 252 -228 252c-228 0 -228 -1 -228 -252zM638 798v-30h-48
c-54 0 -94 30 -158 78h-20c-64 -48 -104 -78 -158 -78h-48v30l200 150h32z" />
    <glyph glyph-name="Otilde" unicode="&#xd5;" horiz-adv-x="844" 
d="M386 724h72c312 0 312 -184 312 -340v-60c0 -156 0 -340 -312 -340h-72c-312 0 -312 184 -312 340v60c0 156 0 340 312 340zM194 366v-24c0 -252 1 -252 228 -252c228 0 228 1 228 252v24c0 252 -1 252 -228 252c-228 0 -228 -1 -228 -252zM389 816l-40 30h-26l-48 -64
h-78v36c84 112 126 112 156 112c18 0 46 0 102 -42l40 -30h26l48 64h78v-36c-84 -112 -126 -112 -156 -112c-18 0 -46 0 -102 42z" />
    <glyph glyph-name="Odieresis" unicode="&#xd6;" horiz-adv-x="844" 
d="M386 724h72c312 0 312 -184 312 -340v-60c0 -156 0 -340 -312 -340h-72c-312 0 -312 184 -312 340v60c0 156 0 340 312 340zM194 366v-24c0 -252 1 -252 228 -252c228 0 228 1 228 252v24c0 252 -1 252 -228 252c-228 0 -228 -1 -228 -252zM278 918h30
c60 0 60 -36 60 -60v-12c0 -24 0 -60 -60 -60h-30c-60 0 -60 36 -60 60v12c0 24 0 60 60 60zM536 918h30c60 0 60 -36 60 -60v-12c0 -24 0 -60 -60 -60h-30c-60 0 -60 36 -60 60v12c0 24 0 60 60 60z" />
    <glyph glyph-name="multiply" unicode="&#xd7;" 
d="M552 37l-202 202l-202 -202l-46 46l202 202l-202 202l46 46l202 -202l202 202l46 -46l-202 -202l202 -202z" />
    <glyph glyph-name="Oslash" unicode="&#xd8;" horiz-adv-x="844" 
d="M386 724h48c60 0 157 0 233 -57l57 57l68 -68l-58 -58c36 -48 36 -130 36 -214v-60c0 -156 0 -340 -312 -340h-48c-60 0 -157 0 -233 57l-57 -57l-68 68l58 58c-36 48 -36 130 -36 214v60c0 156 0 340 312 340zM650 342v174h-24c-78 -104 -118 -144 -142 -168l-237 -237
c28 -21 91 -21 175 -21c228 0 228 0 228 252zM360 360l237 237c-28 21 -91 21 -175 21c-228 0 -228 0 -228 -252v-174h24c78 104 118 144 142 168z" />
    <glyph glyph-name="Ugrave" unicode="&#xd9;" horiz-adv-x="832" 
d="M734 708v-420c0 -144 0 -304 -288 -304h-60c-288 0 -288 160 -288 304v420h108v-408c0 -210 0 -210 210 -210s210 0 210 210v408h108zM578 798v-30h-48c-84 0 -140 42 -276 144v36h124z" />
    <glyph glyph-name="Uacute" unicode="&#xda;" horiz-adv-x="832" 
d="M734 708v-420c0 -144 0 -304 -288 -304h-60c-288 0 -288 160 -288 304v420h108v-408c0 -210 0 -210 210 -210s210 0 210 210v408h108zM254 768v30l200 150h124v-36c-136 -102 -192 -144 -276 -144h-48z" />
    <glyph glyph-name="Ucircumflex" unicode="&#xdb;" horiz-adv-x="832" 
d="M734 708v-420c0 -144 0 -304 -288 -304h-60c-288 0 -288 160 -288 304v420h108v-408c0 -210 0 -210 210 -210s210 0 210 210v408h108zM632 798v-30h-48c-54 0 -94 30 -158 78h-20c-64 -48 -104 -78 -158 -78h-48v30l200 150h32z" />
    <glyph glyph-name="Udieresis" unicode="&#xdc;" horiz-adv-x="832" 
d="M734 708v-420c0 -144 0 -304 -288 -304h-60c-288 0 -288 160 -288 304v420h108v-408c0 -210 0 -210 210 -210s210 0 210 210v408h108zM272 918h30c60 0 60 -36 60 -60v-12c0 -24 0 -60 -60 -60h-30c-60 0 -60 36 -60 60v12c0 24 0 60 60 60zM530 918h30
c60 0 60 -36 60 -60v-12c0 -24 0 -60 -60 -60h-30c-60 0 -60 36 -60 60v12c0 24 0 60 60 60z" />
    <glyph glyph-name="Yacute" unicode="&#xdd;" horiz-adv-x="724" 
d="M716 672l-300 -400v-272h-108v272l-300 400v36h120c126 -168 192 -256 192 -306h84c0 50 66 138 192 306h120v-36zM224 768v30l200 150h124v-36c-136 -102 -192 -144 -276 -144h-48z" />
    <glyph glyph-name="Thorn" unicode="&#xde;" horiz-adv-x="730" 
d="M212 504v-300h192c150 0 150 0 150 150s0 150 -150 150h-192zM104 0v708h108v-108h120c222 0 336 0 336 -246s-114 -246 -336 -246h-120v-108h-108z" />
    <glyph glyph-name="germandbls" unicode="&#xdf;" 
d="M188 0h-102v480c0 108 0 240 252 240c244 0 244 -132 244 -192c0 -30 0 -80 -64 -96l-48 -12h-18c-78 0 -78 0 -78 -48c0 -46 0 -46 56 -60l76 -19c60 -15 156 -39 156 -149c0 -42 0 -156 -192 -156c-18 0 -84 0 -180 24v96h24l96 -24h78c78 0 78 0 78 48
c0 46 0 46 -56 60l-76 19c-60 15 -156 39 -156 143c0 42 0 144 156 144h42v30c0 96 0 96 -138 96c-150 0 -150 0 -150 -120v-504z" />
    <glyph glyph-name="agrave" unicode="&#xe0;" horiz-adv-x="622" 
d="M502 -12l-51 68c-24 -18 -91 -68 -215 -68c-180 0 -180 96 -180 144c0 78 0 162 252 162h132c0 126 0 126 -132 126h-90l-96 -24h-24v96c96 24 174 24 210 24c234 0 234 -120 234 -240v-84c0 -99 0 -99 36 -147zM170 144c0 -60 0 -60 72 -60h54l144 36v96h-132
c-138 0 -138 0 -138 -72zM470 600v-30h-48c-84 0 -140 42 -276 144v36h124z" />
    <glyph glyph-name="aacute" unicode="&#xe1;" horiz-adv-x="622" 
d="M502 -12l-51 68c-24 -18 -91 -68 -215 -68c-180 0 -180 96 -180 144c0 78 0 162 252 162h132c0 126 0 126 -132 126h-90l-96 -24h-24v96c96 24 174 24 210 24c234 0 234 -120 234 -240v-84c0 -99 0 -99 36 -147zM170 144c0 -60 0 -60 72 -60h54l144 36v96h-132
c-138 0 -138 0 -138 -72zM146 570v30l200 150h124v-36c-136 -102 -192 -144 -276 -144h-48z" />
    <glyph glyph-name="acircumflex" unicode="&#xe2;" horiz-adv-x="622" 
d="M502 -12l-51 68c-24 -18 -91 -68 -215 -68c-180 0 -180 96 -180 144c0 78 0 162 252 162h132c0 126 0 126 -132 126h-90l-96 -24h-24v96c96 24 174 24 210 24c234 0 234 -120 234 -240v-84c0 -99 0 -99 36 -147zM170 144c0 -60 0 -60 72 -60h54l144 36v96h-132
c-138 0 -138 0 -138 -72zM530 600v-30h-48c-54 0 -94 30 -158 78h-20c-64 -48 -104 -78 -158 -78h-48v30l200 150h32z" />
    <glyph glyph-name="atilde" unicode="&#xe3;" horiz-adv-x="622" 
d="M502 -12l-51 68c-24 -18 -91 -68 -215 -68c-180 0 -180 96 -180 144c0 78 0 162 252 162h132c0 126 0 126 -132 126h-90l-96 -24h-24v96c96 24 174 24 210 24c234 0 234 -120 234 -240v-84c0 -99 0 -99 36 -147zM170 144c0 -60 0 -60 72 -60h54l144 36v96h-132
c-138 0 -138 0 -138 -72zM290 618l-40 30h-26l-48 -64h-78v36c84 112 126 112 156 112c18 0 46 0 102 -42l40 -30h26l48 64h78v-36c-84 -112 -126 -112 -156 -112c-18 0 -46 0 -102 42z" />
    <glyph glyph-name="adieresis" unicode="&#xe4;" horiz-adv-x="622" 
d="M502 -12l-51 68c-24 -18 -91 -68 -215 -68c-180 0 -180 96 -180 144c0 78 0 162 252 162h132c0 126 0 126 -132 126h-90l-96 -24h-24v96c96 24 174 24 210 24c234 0 234 -120 234 -240v-84c0 -99 0 -99 36 -147zM170 144c0 -60 0 -60 72 -60h54l144 36v96h-132
c-138 0 -138 0 -138 -72zM167 720h30c60 0 60 -36 60 -60v-12c0 -24 0 -60 -60 -60h-30c-60 0 -60 36 -60 60v12c0 24 0 60 60 60zM425 720h30c60 0 60 -36 60 -60v-12c0 -24 0 -60 -60 -60h-30c-60 0 -60 36 -60 60v12c0 24 0 60 60 60z" />
    <glyph glyph-name="aring" unicode="&#xe5;" horiz-adv-x="622" 
d="M502 -12l-51 68c-24 -18 -91 -68 -215 -68c-180 0 -180 96 -180 144c0 78 0 162 252 162h132c0 126 0 126 -132 126h-90l-96 -24h-24v96c96 24 174 24 210 24c234 0 234 -120 234 -240v-84c0 -99 0 -99 36 -147zM170 144c0 -60 0 -60 72 -60h54l144 36v96h-132
c-138 0 -138 0 -138 -72zM287 774h36c132 0 132 -60 132 -84v-36c0 -24 0 -84 -132 -84h-36c-132 0 -132 60 -132 84v36c0 24 0 84 132 84zM329 714h-48c-42 0 -42 -1 -42 -36v-12c0 -36 1 -36 42 -36h48c42 0 42 1 42 36v12c0 36 -1 36 -42 36z" />
    <glyph glyph-name="ae" unicode="&#xe6;" horiz-adv-x="922" 
d="M638 84h66l96 24h24v-96c-96 -24 -174 -24 -198 -24c-134 0 -170 48 -197 84c-40 -30 -112 -84 -211 -84c-162 0 -162 96 -162 144c0 60 0 156 222 156h120c0 132 0 132 -120 132h-60l-96 -24h-24v96c96 24 174 24 192 24c35 0 117 0 156 -52h18c39 52 138 52 174 52h12
c210 0 210 -144 210 -240v-42l-24 -6c-54 -12 -78 -12 -222 -12h-102c0 -126 0 -132 126 -132zM512 288h240c0 132 0 132 -120 132s-120 0 -120 -132zM170 144c0 -60 0 -60 72 -60h12l144 36v96h-84c-144 0 -144 0 -144 -72z" />
    <glyph glyph-name="ccedilla" unicode="&#xe7;" horiz-adv-x="592" 
d="M170 -210v66h24l72 -18h66c42 0 42 0 42 27s0 27 -42 27h-72v24l19 76c-217 0 -217 128 -217 236v48c0 108 0 240 222 240h48c210 0 210 -120 210 -168l-96 -24c-24 96 -24 96 -138 96c-138 0 -138 0 -138 -168s0 -168 174 -168h53l97 24h24v-96
c-80 -20 -150 -20 -180 -20v-46h6c48 0 120 0 120 -78c0 -36 0 -96 -156 -96c-12 0 -66 0 -138 18z" />
    <glyph glyph-name="egrave" unicode="&#xe8;" horiz-adv-x="616" 
d="M308 84h90l96 24h24v-96c-96 -24 -168 -24 -210 -24c-246 0 -246 132 -246 240v48c0 96 0 240 222 240h48c222 0 222 -144 222 -240v-48l-24 -6c-54 -12 -78 -12 -222 -12h-138c0 -126 0 -126 138 -126zM170 288h276c0 132 0 132 -138 132s-138 0 -138 -132zM470 600v-30
h-48c-84 0 -140 42 -276 144v36h124z" />
    <glyph glyph-name="eacute" unicode="&#xe9;" horiz-adv-x="616" 
d="M308 84h90l96 24h24v-96c-96 -24 -168 -24 -210 -24c-246 0 -246 132 -246 240v48c0 96 0 240 222 240h48c222 0 222 -144 222 -240v-48l-24 -6c-54 -12 -78 -12 -222 -12h-138c0 -126 0 -126 138 -126zM170 288h276c0 132 0 132 -138 132s-138 0 -138 -132zM146 570v30
l200 150h124v-36c-136 -102 -192 -144 -276 -144h-48z" />
    <glyph glyph-name="ecircumflex" unicode="&#xea;" horiz-adv-x="616" 
d="M308 84h90l96 24h24v-96c-96 -24 -168 -24 -210 -24c-246 0 -246 132 -246 240v48c0 96 0 240 222 240h48c222 0 222 -144 222 -240v-48l-24 -6c-54 -12 -78 -12 -222 -12h-138c0 -126 0 -126 138 -126zM170 288h276c0 132 0 132 -138 132s-138 0 -138 -132zM524 600v-30
h-48c-54 0 -94 30 -158 78h-20c-64 -48 -104 -78 -158 -78h-48v30l200 150h32z" />
    <glyph glyph-name="edieresis" unicode="&#xeb;" horiz-adv-x="616" 
d="M308 84h90l96 24h24v-96c-96 -24 -168 -24 -210 -24c-246 0 -246 132 -246 240v48c0 96 0 240 222 240h48c222 0 222 -144 222 -240v-48l-24 -6c-54 -12 -78 -12 -222 -12h-138c0 -126 0 -126 138 -126zM170 288h276c0 132 0 132 -138 132s-138 0 -138 -132zM164 720h30
c60 0 60 -36 60 -60v-12c0 -24 0 -60 -60 -60h-30c-60 0 -60 36 -60 60v12c0 24 0 60 60 60zM422 720h30c60 0 60 -36 60 -60v-12c0 -24 0 -60 -60 -60h-30c-60 0 -60 36 -60 60v12c0 24 0 60 60 60z" />
    <glyph glyph-name="igrave" unicode="&#xec;" horiz-adv-x="274" 
d="M86 486l72 18h30v-504h-102v486zM281 600v-30h-48c-84 0 -140 42 -276 144v36h124z" />
    <glyph glyph-name="iacute" unicode="&#xed;" horiz-adv-x="274" 
d="M86 486l72 18h30v-504h-102v486zM-7 570v30l200 150h124v-36c-136 -102 -192 -144 -276 -144h-48z" />
    <glyph glyph-name="icircumflex" unicode="&#xee;" horiz-adv-x="274" 
d="M86 486l72 18h30v-504h-102v486zM353 600v-30h-48c-54 0 -94 30 -158 78h-20c-64 -48 -104 -78 -158 -78h-48v30l200 150h32z" />
    <glyph glyph-name="idieresis" unicode="&#xef;" horiz-adv-x="274" 
d="M86 486l72 18h30v-504h-102v486zM-7 720h30c60 0 60 -36 60 -60v-12c0 -24 0 -60 -60 -60h-30c-60 0 -60 36 -60 60v12c0 24 0 60 60 60zM251 720h30c60 0 60 -36 60 -60v-12c0 -24 0 -60 -60 -60h-30c-60 0 -60 36 -60 60v12c0 24 0 60 60 60z" />
    <glyph glyph-name="eth" unicode="&#xf0;" horiz-adv-x="664" 
d="M156 464l-19 76l208 52l-69 92v24h114l66 -88l112 28l19 -76l-84 -21c93 -124 93 -263 93 -323c0 -96 0 -240 -246 -240h-48c-240 0 -240 120 -240 210v24c0 96 0 210 252 210c18 0 126 0 162 -48l16 12l-96 128zM314 342c-144 0 -144 0 -144 -132
c0 -126 0 -126 156 -126s156 0 156 126c0 132 0 132 -168 132z" />
    <glyph glyph-name="ntilde" unicode="&#xf1;" horiz-adv-x="664" 
d="M584 276v-276h-102v264c0 156 0 156 -150 156l-144 -36v-384h-102v504h48l42 -56c48 36 114 68 204 68c204 0 204 -132 204 -240zM308 618l-40 30h-26l-48 -64h-78v36c84 112 126 112 156 112c18 0 46 0 102 -42l40 -30h26l48 64h78v-36c-84 -112 -126 -112 -156 -112
c-18 0 -46 0 -102 42z" />
    <glyph glyph-name="ograve" unicode="&#xf2;" horiz-adv-x="652" 
d="M170 252c0 -168 0 -168 156 -168s156 0 156 168s0 168 -156 168s-156 0 -156 -168zM62 228v48c0 96 0 240 240 240h48c240 0 240 -144 240 -240v-48c0 -96 0 -240 -240 -240h-48c-240 0 -240 144 -240 240zM470 600v-30h-48c-84 0 -140 42 -276 144v36h124z" />
    <glyph glyph-name="oacute" unicode="&#xf3;" horiz-adv-x="652" 
d="M170 252c0 -168 0 -168 156 -168s156 0 156 168s0 168 -156 168s-156 0 -156 -168zM62 228v48c0 96 0 240 240 240h48c240 0 240 -144 240 -240v-48c0 -96 0 -240 -240 -240h-48c-240 0 -240 144 -240 240zM176 570v30l200 150h124v-36c-136 -102 -192 -144 -276 -144
h-48z" />
    <glyph glyph-name="ocircumflex" unicode="&#xf4;" horiz-adv-x="652" 
d="M170 252c0 -168 0 -168 156 -168s156 0 156 168s0 168 -156 168s-156 0 -156 -168zM62 228v48c0 96 0 240 240 240h48c240 0 240 -144 240 -240v-48c0 -96 0 -240 -240 -240h-48c-240 0 -240 144 -240 240zM542 600v-30h-48c-54 0 -94 30 -158 78h-20
c-64 -48 -104 -78 -158 -78h-48v30l200 150h32z" />
    <glyph glyph-name="otilde" unicode="&#xf5;" horiz-adv-x="652" 
d="M170 252c0 -168 0 -168 156 -168s156 0 156 168s0 168 -156 168s-156 0 -156 -168zM62 228v48c0 96 0 240 240 240h48c240 0 240 -144 240 -240v-48c0 -96 0 -240 -240 -240h-48c-240 0 -240 144 -240 240zM293 618l-40 30h-26l-48 -64h-78v36c84 112 126 112 156 112
c18 0 46 0 102 -42l40 -30h26l48 64h78v-36c-84 -112 -126 -112 -156 -112c-18 0 -46 0 -102 42z" />
    <glyph glyph-name="odieresis" unicode="&#xf6;" horiz-adv-x="652" 
d="M170 252c0 -168 0 -168 156 -168s156 0 156 168s0 168 -156 168s-156 0 -156 -168zM62 228v48c0 96 0 240 240 240h48c240 0 240 -144 240 -240v-48c0 -96 0 -240 -240 -240h-48c-240 0 -240 144 -240 240zM182 720h30c60 0 60 -36 60 -60v-12c0 -24 0 -60 -60 -60h-30
c-60 0 -60 36 -60 60v12c0 24 0 60 60 60zM440 720h30c60 0 60 -36 60 -60v-12c0 -24 0 -60 -60 -60h-30c-60 0 -60 36 -60 60v12c0 24 0 60 60 60z" />
    <glyph glyph-name="divide" unicode="&#xf7;" 
d="M104 318h492v-66h-492v66zM338 174h24c60 0 60 -36 60 -60v-24c0 -24 0 -60 -60 -60h-24c-60 0 -60 36 -60 60v24c0 24 0 60 60 60zM338 540h24c60 0 60 -36 60 -60v-24c0 -24 0 -60 -60 -60h-24c-60 0 -60 36 -60 60v24c0 24 0 60 60 60z" />
    <glyph glyph-name="oslash" unicode="&#xf8;" horiz-adv-x="652" 
d="M62 228v48c0 96 0 240 240 240h36c36 0 108 0 156 -36l36 36l60 -60l-36 -36c36 -48 36 -108 36 -144v-48c0 -96 0 -240 -240 -240h-36c-36 0 -108 0 -156 36l-36 -36l-60 60l36 36c-36 48 -36 108 -36 144zM170 252v-96h18c54 72 78 96 114 132l123 123
c-12 9 -39 9 -99 9c-156 0 -156 0 -156 -168zM350 216l-123 -123c12 -9 39 -9 99 -9c156 0 156 0 156 168v96h-18c-54 -72 -78 -96 -114 -132z" />
    <glyph glyph-name="ugrave" unicode="&#xf9;" horiz-adv-x="664" 
d="M538 -12l-51 68c-24 -18 -91 -68 -209 -68c-198 0 -198 132 -198 240v276h102v-264c0 -156 0 -156 150 -156l144 36v384h102v-312c0 -99 0 -99 36 -147zM476 600v-30h-48c-84 0 -140 42 -276 144v36h124z" />
    <glyph glyph-name="uacute" unicode="&#xfa;" horiz-adv-x="664" 
d="M538 -12l-51 68c-24 -18 -91 -68 -209 -68c-198 0 -198 132 -198 240v276h102v-264c0 -156 0 -156 150 -156l144 36v384h102v-312c0 -99 0 -99 36 -147zM182 570v30l200 150h124v-36c-136 -102 -192 -144 -276 -144h-48z" />
    <glyph glyph-name="ucircumflex" unicode="&#xfb;" horiz-adv-x="664" 
d="M538 -12l-51 68c-24 -18 -91 -68 -209 -68c-198 0 -198 132 -198 240v276h102v-264c0 -156 0 -156 150 -156l144 36v384h102v-312c0 -99 0 -99 36 -147zM545 600v-30h-48c-54 0 -94 30 -158 78h-20c-64 -48 -104 -78 -158 -78h-48v30l200 150h32z" />
    <glyph glyph-name="udieresis" unicode="&#xfc;" horiz-adv-x="664" 
d="M538 -12l-51 68c-24 -18 -91 -68 -209 -68c-198 0 -198 132 -198 240v276h102v-264c0 -156 0 -156 150 -156l144 36v384h102v-312c0 -99 0 -99 36 -147zM188 720h30c60 0 60 -36 60 -60v-12c0 -24 0 -60 -60 -60h-30c-60 0 -60 36 -60 60v12c0 24 0 60 60 60zM446 720h30
c60 0 60 -36 60 -60v-12c0 -24 0 -60 -60 -60h-30c-60 0 -60 36 -60 60v12c0 24 0 60 60 60z" />
    <glyph glyph-name="yacute" unicode="&#xfd;" horiz-adv-x="568" 
d="M248 108h81c0 34 0 34 102 306v90h105c0 -104 0 -104 -150 -504l-39 -104c-42 -112 -123 -112 -201 -112h-12v96h48c57 0 57 0 75 48l36 96h-111c-150 375 -150 375 -150 480h108v-90c108 -270 108 -270 108 -306zM140 570v30l200 150h124v-36
c-136 -102 -192 -144 -276 -144h-48z" />
    <glyph glyph-name="thorn" unicode="&#xfe;" horiz-adv-x="664" 
d="M86 708l72 18h30v-270c80 60 174 60 198 60c216 0 216 -144 216 -240v-48c0 -84 0 -240 -228 -240c-90 0 -138 12 -186 24v-216h-102v912zM494 252c0 168 0 168 -162 168l-144 -36v-288c48 -12 108 -12 144 -12c162 0 162 0 162 168z" />
    <glyph glyph-name="ydieresis" unicode="&#xff;" horiz-adv-x="568" 
d="M248 108h81c0 34 0 34 102 306v90h105c0 -104 0 -104 -150 -504l-39 -104c-42 -112 -123 -112 -201 -112h-12v96h48c57 0 57 0 75 48l36 96h-111c-150 375 -150 375 -150 480h108v-90c108 -270 108 -270 108 -306zM140 720h30c60 0 60 -36 60 -60v-12
c0 -24 0 -60 -60 -60h-30c-60 0 -60 36 -60 60v12c0 24 0 60 60 60zM398 720h30c60 0 60 -36 60 -60v-12c0 -24 0 -60 -60 -60h-30c-60 0 -60 36 -60 60v12c0 24 0 60 60 60z" />
    <glyph glyph-name="dotlessi" unicode="&#x131;" horiz-adv-x="274" 
d="M86 486l72 18h30v-504h-102v486z" />
    <glyph glyph-name="Lslash" unicode="&#x141;" horiz-adv-x="610" 
d="M596 0h-480v243l-58 -43l-51 68l109 81v359h108v-278l143 108l51 -68l-194 -146v-228h372v-96z" />
    <glyph glyph-name="lslash" unicode="&#x142;" horiz-adv-x="302" 
d="M102 708l72 18h30v-316l73 55l45 -60l-118 -89v-142c0 -78 0 -78 36 -129l-76 -57c-61 86 -62 88 -62 186v66l-48 -36l-45 60l93 69v375z" />
    <glyph glyph-name="OE" unicode="&#x152;" horiz-adv-x="1156" 
d="M362 724h48c62 0 102 -10 126 -16h558v-96h-426v-24c30 -40 30 -144 30 -186h330v-96h-330c0 -20 0 -146 -30 -186v-24h426v-96h-558c-24 -6 -64 -16 -126 -16h-48c-288 0 -288 184 -288 340v60c0 156 0 340 288 340zM194 366v-24c0 -252 0 -252 192 -252s192 0 192 252
v24c0 252 0 252 -192 252s-192 0 -192 -252z" />
    <glyph glyph-name="oe" unicode="&#x153;" horiz-adv-x="958" 
d="M674 84h66l96 24h24v-96c-96 -24 -162 -24 -186 -24c-36 0 -138 0 -177 52h-18c-39 -52 -141 -52 -177 -52h-12c-228 0 -228 144 -228 240v48c0 96 0 240 228 240h12c36 0 138 0 177 -52h18c39 52 141 52 177 52h12c210 0 210 -144 210 -240v-42l-24 -6
c-54 -12 -78 -12 -222 -12h-102c0 -132 0 -132 126 -132zM170 252c0 -168 0 -168 132 -168s132 0 132 168s0 168 -132 168s-132 0 -132 -168zM548 288h240c0 132 0 132 -120 132s-120 0 -120 -132z" />
    <glyph glyph-name="Scaron" unicode="&#x160;" horiz-adv-x="724" 
d="M272 434l168 -42c120 -30 220 -55 220 -200c0 -78 0 -208 -286 -208c-60 0 -130 0 -282 38v104h36l144 -36h156c112 0 112 0 112 90c0 72 0 72 -88 94l-168 42c-120 30 -220 55 -220 200c0 78 0 208 286 208c60 0 130 0 282 -38v-104h-36l-144 36h-156
c-112 0 -112 0 -112 -90c0 -72 0 -72 88 -94zM146 918v30h48c54 0 94 -30 158 -78h20c64 48 104 78 158 78h48v-30l-200 -150h-32z" />
    <glyph glyph-name="scaron" unicode="&#x161;" horiz-adv-x="544" 
d="M194 84h120c78 0 78 0 78 54c0 35 0 35 -66 51l-108 27c-60 15 -168 39 -168 144c0 54 0 156 228 156c48 0 96 0 192 -24v-96h-24l-96 24h-120c-78 0 -78 0 -78 -54c0 -35 0 -35 66 -51l108 -27c60 -15 168 -39 168 -144c0 -54 0 -156 -228 -156c-48 0 -96 0 -192 24v96
h24zM50 720v30h48c54 0 94 -30 158 -78h20c64 48 104 78 158 78h48v-30l-200 -150h-32z" />
    <glyph glyph-name="Ydieresis" unicode="&#x178;" horiz-adv-x="724" 
d="M716 672l-300 -400v-272h-108v272l-300 400v36h120c126 -168 192 -256 192 -306h84c0 50 66 138 192 306h120v-36zM218 918h30c60 0 60 -36 60 -60v-12c0 -24 0 -60 -60 -60h-30c-60 0 -60 36 -60 60v12c0 24 0 60 60 60zM476 918h30c60 0 60 -36 60 -60v-12
c0 -24 0 -60 -60 -60h-30c-60 0 -60 36 -60 60v12c0 24 0 60 60 60z" />
    <glyph glyph-name="Zcaron" unicode="&#x17d;" horiz-adv-x="724" 
d="M656 708v-132l-456 -456l8 -32c96 20 244 20 400 20h48v-108h-588v132l456 456l-8 32c-96 -20 -244 -20 -400 -20h-48v108h588zM146 918v30h48c54 0 94 -30 158 -78h20c64 48 104 78 158 78h48v-30l-200 -150h-32z" />
    <glyph glyph-name="zcaron" unicode="&#x17e;" horiz-adv-x="544" 
d="M488 504v-102l-306 -306l5 -20c80 20 175 20 259 20h42v-96h-432v102l306 306l-5 20c-80 -20 -175 -20 -259 -20h-42v96h432zM56 720v30h48c54 0 94 -30 158 -78h20c64 48 104 78 158 78h48v-30l-200 -150h-32z" />
    <glyph glyph-name="florin" unicode="&#x192;" 
d="M542 294v-12c0 -162 -132 -162 -186 -162h-12c-54 0 -186 0 -186 162v12c0 162 132 162 186 162h12c54 0 186 0 186 -162z" />
    <glyph glyph-name="circumflex" unicode="&#x2c6;" horiz-adv-x="472" 
d="M452 600v-30h-48c-54 0 -94 30 -158 78h-20c-64 -48 -104 -78 -158 -78h-48v30l200 150h32z" />
    <glyph glyph-name="caron" unicode="&#x2c7;" horiz-adv-x="472" 
d="M20 720v30h48c54 0 94 -30 158 -78h20c64 48 104 78 158 78h48v-30l-200 -150h-32z" />
    <glyph glyph-name="uni02C9" unicode="&#x2c9;" horiz-adv-x="400" 
d="M20 714h360v-94h-360v94z" />
    <glyph glyph-name="breve" unicode="&#x2d8;" horiz-adv-x="434" 
d="M235 570h-36c-68 0 -116 0 -179 84l72 54c33 -44 33 -44 88 -44h74c55 0 55 0 88 44l72 -54c-63 -84 -111 -84 -179 -84z" />
    <glyph glyph-name="dotaccent" unicode="&#x2d9;" horiz-adv-x="190" 
d="M80 720h30c60 0 60 -36 60 -60v-12c0 -24 0 -60 -60 -60h-30c-60 0 -60 36 -60 60v12c0 24 0 60 60 60z" />
    <glyph glyph-name="ring" unicode="&#x2da;" horiz-adv-x="340" 
d="M152 774h36c132 0 132 -60 132 -84v-36c0 -24 0 -84 -132 -84h-36c-132 0 -132 60 -132 84v36c0 24 0 84 132 84zM194 714h-48c-42 0 -42 -1 -42 -36v-12c0 -36 1 -36 42 -36h48c42 0 42 1 42 36v12c0 36 -1 36 -42 36z" />
    <glyph glyph-name="ogonek" unicode="&#x2db;" horiz-adv-x="298" 
d="M278 -144v-66c-72 -18 -114 -18 -138 -18c-120 0 -120 54 -120 78c0 45 28 66 116 132l16 12v30h72v-66l-64 -48c-46 -34 -46 -34 -46 -48c0 -24 0 -24 32 -24h36l72 18h24z" />
    <glyph glyph-name="tilde" unicode="&#x2dc;" horiz-adv-x="490" 
d="M212 618l-40 30h-26l-48 -64h-78v36c84 112 126 112 156 112c18 0 46 0 102 -42l40 -30h26l48 64h78v-36c-84 -112 -126 -112 -156 -112c-18 0 -46 0 -102 42z" />
    <glyph glyph-name="hungarumlaut" unicode="&#x2dd;" horiz-adv-x="514" 
d="M20 570v36l108 144h108v-36c-69 -92 -108 -144 -180 -144h-36zM278 570v36l108 144h108v-36c-69 -92 -108 -144 -180 -144h-36z" />
    <glyph glyph-name="uni0394" unicode="&#x394;" 
d="M542 294v-12c0 -162 -132 -162 -186 -162h-12c-54 0 -186 0 -186 162v12c0 162 132 162 186 162h12c54 0 186 0 186 -162z" />
    <glyph glyph-name="uni03A9" unicode="&#x3a9;" 
d="M542 294v-12c0 -162 -132 -162 -186 -162h-12c-54 0 -186 0 -186 162v12c0 162 132 162 186 162h12c54 0 186 0 186 -162z" />
    <glyph glyph-name="uni03BC" unicode="&#x3bc;" 
d="M542 294v-12c0 -162 -132 -162 -186 -162h-12c-54 0 -186 0 -186 162v12c0 162 132 162 186 162h12c54 0 186 0 186 -162z" />
    <glyph glyph-name="pi" unicode="&#x3c0;" 
d="M542 294v-12c0 -162 -132 -162 -186 -162h-12c-54 0 -186 0 -186 162v12c0 162 132 162 186 162h12c54 0 186 0 186 -162z" />
    <glyph glyph-name="afii10023" unicode="&#x401;" horiz-adv-x="694" 
d="M104 0v708h528v-96h-420v-210h354v-96h-354v-210h420v-96h-528zM216 898h28c55 0 55 -32 55 -55v-10c0 -23 0 -55 -55 -55h-28c-55 0 -55 32 -55 55v10c0 23 0 55 55 55zM460 898h28c55 0 55 -32 55 -55v-10c0 -23 0 -55 -55 -55h-28c-55 0 -55 32 -55 55v10
c0 23 0 55 55 55z" />
    <glyph glyph-name="afii10051" unicode="&#x402;" horiz-adv-x="928" 
d="M14 708h636v-96h-264v-198c96 24 168 42 252 42c234 0 234 -144 234 -228v-12c0 -84 0 -232 -210 -232c-24 0 -64 0 -168 26v98h36l96 -24h12c114 0 114 0 114 126v12c0 126 0 126 -180 126h-42l-144 -36v-312h-108v612h-264v96z" />
    <glyph glyph-name="afii10052" unicode="&#x403;" horiz-adv-x="609" 
d="M104 708v-708h108v612h372v96h-480zM194 768v30l200 150h124v-36c-136 -102 -192 -144 -276 -144h-48z" />
    <glyph glyph-name="afii10053" unicode="&#x404;" horiz-adv-x="736" 
d="M488 402v-96h-291c0 -216 0 -216 249 -216h42l144 36h36v-104c-152 -38 -222 -38 -282 -38c-312 0 -312 172 -312 340v60c0 156 0 340 294 340h36c282 0 282 -154 282 -224l-104 -26c-36 144 -36 144 -196 144c-189 0 -189 0 -189 -216h291z" />
    <glyph glyph-name="afii10054" unicode="&#x405;" horiz-adv-x="720" 
d="M272 434l168 -42c120 -30 220 -55 220 -200c0 -78 0 -208 -286 -208c-60 0 -130 0 -282 38v104h36l144 -36h156c112 0 112 0 112 90c0 72 0 72 -88 94l-168 42c-120 30 -220 55 -220 200c0 78 0 208 286 208c60 0 130 0 282 -38v-104h-36l-144 36h-156
c-112 0 -112 0 -112 -90c0 -72 0 -72 88 -94z" />
    <glyph glyph-name="afii10055" unicode="&#x406;" horiz-adv-x="316" 
d="M212 0h-108v708h108v-708z" />
    <glyph glyph-name="afii10056" unicode="&#x407;" horiz-adv-x="316" 
d="M212 0h-108v708h108v-708zM14 918h30c60 0 60 -36 60 -60v-12c0 -24 0 -60 -60 -60h-30c-60 0 -60 36 -60 60v12c0 24 0 60 60 60zM272 918h30c60 0 60 -36 60 -60v-12c0 -24 0 -60 -60 -60h-30c-60 0 -60 36 -60 60v12c0 24 0 60 60 60z" />
    <glyph glyph-name="afii10057" unicode="&#x408;" horiz-adv-x="586" 
d="M254 -16c-234 0 -234 148 -234 176l112 28c26 -104 26 -104 122 -104c126 0 126 0 126 132v492h108v-468c0 -132 0 -256 -234 -256z" />
    <glyph glyph-name="afii10058" unicode="&#x409;" horiz-adv-x="1096" 
d="M638 306v-210h150c138 0 138 0 138 103c0 107 0 107 -138 107h-150zM530 612h-223c-3 -93 -2 -202 -30 -422c-22 -170 -42 -192 -242 -192v89c107 0 124 15 139 124c28 199 29 308 32 497h432v-306h54c222 0 348 0 348 -203c0 -199 -114 -199 -336 -199h-174v612z" />
    <glyph glyph-name="afii10059" unicode="&#x40a;" horiz-adv-x="1084" 
d="M518 708h108v-306h66c222 0 336 0 336 -203c0 -199 -114 -199 -336 -199h-174v306h-306v-306h-108v708h108v-306h306v306zM626 306v-210h150c138 0 138 0 138 103c0 107 0 107 -138 107h-150z" />
    <glyph glyph-name="afii10060" unicode="&#x40b;" horiz-adv-x="934" 
d="M14 708h636v-96h-264v-198c96 24 168 42 246 42c228 0 228 -144 228 -288v-168h-108v168c0 180 0 180 -180 180h-42l-144 -36v-312h-108v612h-264v96z" />
    <glyph glyph-name="afii10061" unicode="&#x40c;" horiz-adv-x="760" 
d="M722 672l-239 -318l239 -318v-36h-120c-126 168 -192 256 -192 306h-198v-306h-108v708h108v-306h198c0 50 66 138 192 306h120v-36zM248 768v30l200 150h124v-36c-136 -102 -192 -144 -276 -144h-48z" />
    <glyph glyph-name="afii10062" unicode="&#x40e;" horiz-adv-x="686" 
d="M363 768h-36c-68 0 -116 0 -179 84l72 54c33 -44 33 -44 88 -44h74c55 0 55 0 88 44l72 -54c-63 -84 -111 -84 -179 -84zM282 318h142c-2 48 -2 48 142 390h103v-36l-227 -528c-62 -144 -118 -144 -245 -144h-67v96h91c72 0 85 0 113 60l35 75h-142l-210 441v36h106
c159 -342 159 -342 159 -390z" />
    <glyph glyph-name="afii10145" unicode="&#x40f;" horiz-adv-x="808" 
d="M461 0v-154h-96v154h-261v708h108v-612h384v612h108v-708h-243z" />
    <glyph glyph-name="afii10017" unicode="&#x410;" horiz-adv-x="776" 
d="M282 708h208l268 -670v-38h-104l-72 180h-392l-72 -180h-104v38zM334 612c0 -72 -24 -132 -108 -342h320c-84 210 -108 270 -108 342h-104z" />
    <glyph glyph-name="afii10018" unicode="&#x411;" horiz-adv-x="742" 
d="M212 428h144c222 0 336 -5 336 -214s-114 -214 -336 -214h-252v708h528v-96h-420v-184zM212 332v-236h216c150 0 150 2 150 118c0 118 -2 118 -150 118h-216z" />
    <glyph glyph-name="afii10019" unicode="&#x412;" horiz-adv-x="772" 
d="M464 316h-252v-220h252c108 0 108 5 108 110s0 110 -108 110zM454 612h-242v-200h242c108 0 108 1 108 100s0 100 -108 100zM386 0h-282v708h272c186 0 306 -1 306 -187c0 -24 0 -125 -88 -147v-20c88 -22 98 -133 98 -157c0 -192 -120 -197 -306 -197z" />
    <glyph glyph-name="afii10020" unicode="&#x413;" horiz-adv-x="609" 
d="M104 0v708h480v-96h-372v-612h-108z" />
    <glyph glyph-name="afii10021" unicode="&#x414;" horiz-adv-x="804" 
d="M305 612c0 -158 -10 -324 -96 -516h368v516h-272zM673 0h-542v-154h-96v250h61c90 193 105 358 105 516v96h484v-612h84v-250h-96v154z" />
    <glyph glyph-name="afii10022" unicode="&#x415;" horiz-adv-x="684" 
d="M104 0v708h518v-96h-410v-200h344v-96h-344v-220h410v-96h-518z" />
    <glyph glyph-name="afii10024" unicode="&#x416;" horiz-adv-x="1108" 
d="M38 36l239 318l-239 318v36h120c126 -168 192 -256 192 -306h150v306h108v-306h150c0 50 66 138 192 306h120v-36l-239 -318l239 -318v-36h-120c-126 168 -192 256 -192 306h-150v-306h-108v306h-150c0 -50 -66 -138 -192 -306h-120v36z" />
    <glyph glyph-name="afii10025" unicode="&#x417;" 
d="M234 618l-124 -28h-36v91c152 38 195 43 260 43c289 0 292 -133 292 -202c0 -42 0 -136 -88 -158v-20c88 -22 88 -116 88 -158c0 -71 -3 -202 -292 -202c-65 0 -108 5 -260 43v92h36l124 -29h152c120 0 120 1 120 108c0 108 -1 108 -108 108h-164v96h164
c108 0 108 1 108 108c0 108 -1 108 -120 108h-152z" />
    <glyph glyph-name="afii10026" unicode="&#x418;" horiz-adv-x="828" 
d="M212 132h31c0 31 2 62 42 121l309 455h130v-708h-108v576h-31c0 -34 -4 -69 -54 -142l-297 -434h-130v708h108v-576z" />
    <glyph glyph-name="afii10027" unicode="&#x419;" horiz-adv-x="828" 
d="M430 768h-32c-68 0 -116 0 -179 74l72 54c33 -44 33 -54 88 -54h70c55 0 55 10 88 54l72 -54c-63 -74 -111 -74 -179 -74zM212 132h31c0 31 2 62 42 121l309 455h130v-708h-108v576h-31c0 -34 -4 -69 -54 -142l-297 -434h-130v708h108v-576z" />
    <glyph glyph-name="afii10028" unicode="&#x41a;" horiz-adv-x="760" 
d="M712 680l-229 -308l239 -328v-44h-120l-53 77c-112 163 -139 208 -139 239h-198v-316h-108v708h108v-296h198c0 29 17 72 134 222l58 74h110v-28z" />
    <glyph glyph-name="afii10029" unicode="&#x41b;" horiz-adv-x="808" 
d="M277 190c-22 -170 -42 -192 -242 -192v89c107 0 124 15 139 124c28 199 29 308 32 497h498v-708h-108v612h-289c-3 -93 -2 -202 -30 -422z" />
    <glyph glyph-name="afii10030" unicode="&#x41c;" horiz-adv-x="1042" 
d="M104 708h197c207 -552 207 -552 207 -612h26c0 60 0 60 207 612h197v-708h-108v612h-32c0 -52 0 -52 -210 -612h-134c-210 560 -210 560 -210 612h-32v-612h-108v708z" />
    <glyph glyph-name="afii10031" unicode="&#x41d;" horiz-adv-x="808" 
d="M596 412v296h108v-708h-108v316h-384v-316h-108v708h108v-296h384z" />
    <glyph glyph-name="afii10032" unicode="&#x41e;" horiz-adv-x="824" 
d="M386 724h52c312 0 312 -184 312 -340v-60c0 -156 0 -340 -312 -340h-52c-312 0 -312 184 -312 340v60c0 156 0 340 312 340zM194 366v-24c0 -252 1 -260 218 -260c218 0 218 9 218 260v24c0 252 -1 260 -218 260c-218 0 -218 -9 -218 -260z" />
    <glyph glyph-name="afii10033" unicode="&#x41f;" horiz-adv-x="808" 
d="M104 708h600v-708h-108v612h-384v-612h-108v708z" />
    <glyph glyph-name="afii10034" unicode="&#x420;" horiz-adv-x="748" 
d="M212 612v-300h210c156 0 156 2 156 150c0 150 -2 150 -156 150h-210zM104 0v708h246c228 0 342 0 342 -246s-114 -246 -342 -246h-138v-216h-108z" />
    <glyph glyph-name="afii10035" unicode="&#x421;" horiz-adv-x="736" 
d="M686 500l-104 -26c-36 144 -36 144 -196 144c-192 0 -192 0 -192 -246v-36c0 -246 0 -246 252 -246h42l144 36h36v-104c-152 -38 -222 -38 -282 -38c-312 0 -312 172 -312 340v60c0 156 0 340 294 340h36c282 0 282 -154 282 -224z" />
    <glyph glyph-name="afii10036" unicode="&#x422;" horiz-adv-x="664" 
d="M29 708h606v-96h-249v-612h-108v612h-249v96z" />
    <glyph glyph-name="afii10037" unicode="&#x423;" horiz-adv-x="702" 
d="M300 318h142c-2 48 -2 48 142 390h103v-36l-227 -528c-62 -144 -118 -144 -245 -144h-67v96h91c72 0 85 0 113 60l35 75h-142l-210 441v36h106c159 -342 159 -342 159 -390z" />
    <glyph glyph-name="afii10038" unicode="&#x424;" horiz-adv-x="988" 
d="M440 667v91h108v-91h44c222 0 336 0 336 -268s-114 -268 -336 -268h-44v-131h-108v131h-44c-222 0 -336 0 -336 268s114 268 336 268h44zM634 571h-86v-344h86c180 0 180 0 180 160v24c0 160 0 160 -180 160zM174 411v-24c0 -160 0 -160 180 -160h86v344h-86
c-180 0 -180 0 -180 -160z" />
    <glyph glyph-name="afii10039" unicode="&#x425;" horiz-adv-x="784" 
d="M38 36l239 318l-239 318v36h120c126 -168 192 -256 192 -306h84c0 50 66 138 192 306h120v-36l-239 -318l239 -318v-36h-120c-126 168 -192 256 -192 306h-84c0 -50 -66 -138 -192 -306h-120v36z" />
    <glyph glyph-name="afii10040" unicode="&#x426;" horiz-adv-x="823" 
d="M692 0h-588v708h108v-612h384v612h108v-612h84v-250h-96v154z" />
    <glyph glyph-name="afii10041" unicode="&#x427;" horiz-adv-x="760" 
d="M548 708h108v-708h-108v246c-96 -24 -168 -42 -246 -42c-228 0 -228 144 -228 288v216h108v-216c0 -180 0 -180 180 -180h42l144 36v360z" />
    <glyph glyph-name="afii10042" unicode="&#x428;" horiz-adv-x="1132" 
d="M212 708v-612h300v612h108v-612h300v612h108v-708h-924v708h108z" />
    <glyph glyph-name="afii10043" unicode="&#x429;" horiz-adv-x="1144" 
d="M1028 96h84v-250h-96v154h-912v708h108v-612h300v612h108v-612h300v612h108v-612z" />
    <glyph glyph-name="afii10044" unicode="&#x42a;" horiz-adv-x="834" 
d="M12 615v93h310v-240h120c222 0 336 0 336 -234s-114 -234 -336 -234h-228v615h-202zM322 372v-276h192c150 0 150 1 150 138c0 138 -1 138 -150 138h-192z" />
    <glyph glyph-name="afii10045" unicode="&#x42b;" horiz-adv-x="1000" 
d="M212 372v-276h192c150 0 150 0 150 138s0 138 -150 138h-192zM104 0v708h108v-240h120c222 0 336 0 336 -234s-114 -234 -336 -234h-228zM788 0v708h108v-708h-108z" />
    <glyph glyph-name="afii10046" unicode="&#x42c;" horiz-adv-x="748" 
d="M212 372v-276h216c150 0 150 0 150 138s0 138 -150 138h-216zM104 0v708h108v-240h144c222 0 336 0 336 -234s-114 -234 -336 -234h-252z" />
    <glyph glyph-name="afii10047" unicode="&#x42d;" horiz-adv-x="712" 
d="M254 82h42c219 0 222 8 222 234h-324v96h324c0 206 -3 214 -222 214h-42l-144 -36h-36v96c152 38 192 38 252 38c312 0 312 -154 312 -324v-72c0 -190 0 -344 -312 -344c-60 0 -100 0 -252 38v96h36z" />
    <glyph glyph-name="afii10048" unicode="&#x42e;" horiz-adv-x="1174" 
d="M104 708h108v-306h216c0 138 0 322 300 322h72c300 0 300 -184 300 -340v-60c0 -156 0 -340 -300 -340h-72c-300 0 -300 184 -300 322h-216v-306h-108v708zM548 366v-24c0 -252 0 -252 216 -252s216 0 216 252v24c0 252 0 252 -216 252s-216 0 -216 -252z" />
    <glyph glyph-name="afii10049" unicode="&#x42f;" horiz-adv-x="778" 
d="M566 336v276h-218c-144 0 -144 0 -144 -138s0 -138 144 -138h218zM63 36l153 204c-96 72 -132 99 -132 234c0 234 120 234 360 234h230v-708h-108v240h-266c0 -84 -45 -144 -117 -240h-120v36z" />
    <glyph glyph-name="afii10065" unicode="&#x430;" horiz-adv-x="622" 
d="M502 -12l-51 68c-24 -18 -91 -68 -215 -68c-180 0 -180 96 -180 144c0 78 0 162 252 162h132c0 126 0 126 -132 126h-90l-96 -24h-24v96c96 24 174 24 210 24c234 0 234 -120 234 -240v-84c0 -99 0 -99 36 -147zM170 144c0 -60 0 -60 72 -60h54l144 36v96h-132
c-138 0 -138 0 -138 -72z" />
    <glyph glyph-name="afii10066" unicode="&#x431;" horiz-adv-x="664" 
d="M422 588l-120 -30c-112 -28 -112 -30 -142 -150l18 -6c22 27 70 60 214 60c216 0 216 -120 216 -210v-54c0 -90 0 -210 -240 -210h-48c-246 0 -246 123 -246 291v39c0 156 0 291 204 342l120 30c49 12 48 12 60 48l96 -24l-6 -24c-19 -75 -72 -89 -126 -102zM344 373
c-156 0 -156 -22 -156 -148s0 -148 148 -148c164 0 164 22 164 148s0 148 -156 148z" />
    <glyph glyph-name="afii10067" unicode="&#x432;" horiz-adv-x="622" 
d="M86 0v504h233c120 0 231 0 231 -126c0 -42 0 -96 -96 -120v-12c96 -24 106 -78 106 -120c0 -126 -121 -126 -241 -126h-233zM356 216h-168v-132h168c90 0 90 1 90 66c0 66 -1 66 -90 66zM346 420h-158v-132h158c90 0 90 1 90 66c0 66 -1 66 -90 66z" />
    <glyph glyph-name="afii10068" unicode="&#x433;" horiz-adv-x="517" 
d="M492 504v-88h-304v-416h-102v504h406z" />
    <glyph glyph-name="afii10069" unicode="&#x434;" horiz-adv-x="705" 
d="M133 0v-144h-98v228h69c59 114 72 241 72 360v60h410v-420h84v-228h-98v144h-439zM274 416c0 -95 -12 -217 -60 -332h270v332h-210z" />
    <glyph glyph-name="afii10070" unicode="&#x435;" horiz-adv-x="616" 
d="M308 84h90l96 24h24v-96c-96 -24 -168 -24 -210 -24c-246 0 -246 132 -246 240v48c0 96 0 240 222 240h48c222 0 222 -144 222 -240v-48l-24 -6c-54 -12 -78 -12 -222 -12h-138c0 -126 0 -126 138 -126zM170 288h276c0 132 0 132 -138 132s-138 0 -138 -132z" />
    <glyph glyph-name="afii10072" unicode="&#x436;" horiz-adv-x="918" 
d="M408 504h102v-204h136c0 52 42 108 114 204h114v-28l-169 -224l169 -224v-28h-114c-72 96 -114 152 -114 204h-136v-204h-102v204h-136c0 -52 -42 -108 -114 -204h-114v28l168 224l-168 224v28h114c72 -96 114 -152 114 -204h136v204z" />
    <glyph glyph-name="afii10073" unicode="&#x437;" horiz-adv-x="563" 
d="M176 84h123c90 0 90 0 90 64c0 62 0 62 -90 62h-123v84h123c90 0 90 0 90 62c0 64 0 64 -90 64h-123l-96 -24h-24v96c96 24 173 24 209 24c228 0 238 -96 238 -144c0 -24 0 -90 -96 -114v-12c96 -24 96 -90 96 -114c0 -48 -11 -144 -238 -144c-36 0 -113 0 -209 24v96h24
z" />
    <glyph glyph-name="afii10074" unicode="&#x438;" 
d="M225 0h-139v504h102v-418h27c0 53 0 71 261 418h138v-504h-102v418h-26c0 -53 0 -71 -261 -418z" />
    <glyph glyph-name="afii10075" unicode="&#x439;" 
d="M383 580h-56c-68 0 -116 0 -179 74l72 54c33 -44 34 -44 88 -44h94c55 0 56 0 88 44l72 -54c-63 -74 -111 -74 -179 -74zM225 0h-139v504h102v-418h27c0 53 0 71 261 418h138v-504h-102v418h-26c0 -53 0 -71 -261 -418z" />
    <glyph glyph-name="afii10076" unicode="&#x43a;" horiz-adv-x="640" 
d="M596 476l-169 -224l169 -224v-28h-114c-72 96 -114 152 -114 204h-180v-204h-102v504h102v-204h180c0 52 42 108 114 204h114v-28z" />
    <glyph glyph-name="afii10077" unicode="&#x43b;" horiz-adv-x="653" 
d="M465 415h-217c-2 -62 -9 -139 -24 -249c-20 -149 -37 -168 -199 -168v82c86 0 96 17 108 104c18 130 24 216 27 320h407v-504h-102v415z" />
    <glyph glyph-name="afii10078" unicode="&#x43c;" horiz-adv-x="874" 
d="M86 504h182c156 -375 156 -375 156 -420h26c0 45 0 45 156 420h182v-504h-102v420h-26c0 -30 0 -30 -156 -420h-134c-156 390 -156 390 -156 414h-26v-414h-102v504z" />
    <glyph glyph-name="afii10079" unicode="&#x43d;" horiz-adv-x="670" 
d="M482 504h102v-504h-102v213h-294v-213h-102v504h102v-203h294v203z" />
    <glyph glyph-name="afii10080" unicode="&#x43e;" horiz-adv-x="652" 
d="M170 252c0 -168 0 -173 156 -173s156 5 156 173s0 173 -156 173s-156 -5 -156 -173zM62 228v48c0 96 0 240 240 240h48c240 0 240 -144 240 -240v-48c0 -96 0 -240 -240 -240h-48c-240 0 -240 144 -240 240z" />
    <glyph glyph-name="afii10081" unicode="&#x43f;" horiz-adv-x="670" 
d="M482 504h102v-504h-102v416h-294v-416h-102v504h396z" />
    <glyph glyph-name="afii10082" unicode="&#x440;" horiz-adv-x="664" 
d="M86 504h48l42 -56c24 18 90 68 210 68c216 0 216 -144 216 -240v-48c0 -84 0 -240 -228 -240c-90 0 -138 12 -186 24v-216h-102v708zM494 252c0 162 0 168 -145 168h-17l-144 -36v-288c48 -12 108 -12 144 -12c162 0 162 1 162 168z" />
    <glyph glyph-name="afii10083" unicode="&#x441;" horiz-adv-x="592" 
d="M308 -12c-246 0 -246 132 -246 240v48c0 108 0 240 222 240h48c210 0 210 -120 210 -168l-96 -24c-24 96 -24 96 -138 96c-138 0 -138 0 -138 -168s0 -168 174 -168h53l97 24h24v-96c-96 -24 -174 -24 -210 -24z" />
    <glyph glyph-name="afii10084" unicode="&#x442;" horiz-adv-x="574" 
d="M539 504v-88h-199v-416h-106v416h-199v88h504z" />
    <glyph glyph-name="afii10085" unicode="&#x443;" horiz-adv-x="578" 
d="M253 108h94c0 34 -1 34 94 306v90h105v-20c0 -85 0 -85 -23 -141l-166 -447c-45 -109 -123 -112 -201 -112h-52v96h79c57 0 65 0 84 48l36 96h-101c-160 375 -160 375 -160 480h108v-90c103 -270 103 -270 103 -306z" />
    <glyph glyph-name="afii10086" unicode="&#x444;" horiz-adv-x="942" 
d="M420 -204v227c-61 -35 -132 -35 -148 -35c-210 0 -210 156 -210 240v48c0 84 0 240 210 240c16 0 87 0 148 -35v227h102v-227c60 35 132 35 148 35c210 0 210 -156 210 -240v-48c0 -84 0 -240 -210 -240c-16 0 -88 0 -148 35v-227h-102zM772 252c0 168 0 168 -158 168
l-92 -15v-306l92 -15c158 0 158 0 158 168zM170 252c0 -168 0 -168 158 -168l92 15v306l-92 15c-158 0 -158 0 -158 -168z" />
    <glyph glyph-name="afii10087" unicode="&#x445;" horiz-adv-x="610" 
d="M152 0h-114v28l168 224l-168 224v28h114c72 -96 114 -152 114 -204h78c0 52 42 108 114 204h114v-28l-168 -224l168 -224v-28h-114c-72 96 -114 152 -114 204h-78c0 -52 -42 -108 -114 -204z" />
    <glyph glyph-name="afii10088" unicode="&#x446;" horiz-adv-x="703" 
d="M668 -144h-98v144h-484v504h102v-420h294v420h102v-420h84v-228z" />
    <glyph glyph-name="afii10089" unicode="&#x447;" horiz-adv-x="616" 
d="M56 504h108v-156c0 -96 0 -96 120 -96h72l72 18v234h102v-504h-102v186c-48 -12 -120 -30 -174 -30c-198 0 -198 120 -198 192v156z" />
    <glyph glyph-name="afii10090" unicode="&#x448;" horiz-adv-x="974" 
d="M786 84v420h102v-504h-802v504h102v-420h248v420h102v-420h248z" />
    <glyph glyph-name="afii10091" unicode="&#x449;" horiz-adv-x="1007" 
d="M874 0h-788v504h102v-420h248v420h102v-420h248v420h102v-420h84v-228h-98v144z" />
    <glyph glyph-name="afii10092" unicode="&#x44a;" horiz-adv-x="696" 
d="M30 422v82h268v-174c48 12 96 18 138 18c210 0 210 -120 210 -180c0 -168 -108 -168 -234 -168h-216v422h-166zM424 252h-126v-168h126c114 0 114 0 114 84s0 84 -114 84z" />
    <glyph glyph-name="afii10093" unicode="&#x44b;" horiz-adv-x="826" 
d="M638 504h102v-504h-102v504zM86 0v504h102v-174c48 12 96 18 138 18c210 0 210 -120 210 -180c0 -168 -108 -168 -234 -168h-216zM314 252h-126v-168h126c114 0 114 0 114 84s0 84 -114 84z" />
    <glyph glyph-name="afii10094" unicode="&#x44c;" horiz-adv-x="604" 
d="M326 0h-240v504h102v-174c48 12 102 18 150 18c216 0 216 -120 216 -180c0 -168 -108 -168 -228 -168zM338 252h-150v-168h150c108 0 108 0 108 84s0 84 -108 84z" />
    <glyph glyph-name="afii10095" unicode="&#x44d;" horiz-adv-x="574" 
d="M512 276v-48c0 -108 0 -240 -234 -240h-18c-36 0 -108 0 -204 24v96h24l96 -24h90c138 0 138 0 138 126h-228v84h228c0 126 0 126 -138 126h-90l-96 -24h-24v96c96 24 168 24 204 24h18c234 0 234 -132 234 -240z" />
    <glyph glyph-name="afii10096" unicode="&#x44e;" horiz-adv-x="934" 
d="M86 504h102v-210h156c0 90 0 222 240 222h48c240 0 240 -132 240 -240v-48c0 -108 0 -240 -240 -240h-48c-240 0 -240 132 -240 222h-156v-210h-102v504zM452 252c0 -168 0 -168 156 -168s156 0 156 168s0 168 -156 168s-156 0 -156 -168z" />
    <glyph glyph-name="afii10097" unicode="&#x44f;" horiz-adv-x="628" 
d="M542 0h-102v168h-186c0 -74 -39 -122 -75 -168h-114v28l105 140c-84 63 -114 86 -114 174c0 162 120 162 270 162h216v-504zM284 252h156v168h-156c-114 0 -114 -1 -114 -84c0 -84 1 -84 114 -84z" />
    <glyph glyph-name="afii10071" unicode="&#x451;" horiz-adv-x="616" 
d="M308 84h90l96 24h24v-96c-96 -24 -168 -24 -210 -24c-246 0 -246 132 -246 240v48c0 96 0 240 222 240h48c222 0 222 -144 222 -240v-48l-24 -6c-54 -12 -78 -12 -222 -12h-138c0 -126 0 -126 138 -126zM170 288h276c0 132 0 132 -138 132s-138 0 -138 -132zM179 704h28
c55 0 55 -32 55 -55v-10c0 -23 0 -55 -55 -55h-28c-55 0 -55 32 -55 55v10c0 23 0 55 55 55zM409 704h28c55 0 55 -32 55 -55v-10c0 -23 0 -55 -55 -55h-28c-55 0 -55 32 -55 55v10c0 23 0 55 55 55z" />
    <glyph glyph-name="afii10099" unicode="&#x452;" horiz-adv-x="676" 
d="M8 540v72h90v96l72 18h30v-114h192v-72h-192v-114c80 60 174 60 198 60c198 0 198 -144 198 -222v-192c0 -156 0 -180 -138 -284l-56 74c80 63 90 71 92 140v232c0 156 0 156 -150 156l-144 -36v-354h-102v540h-90z" />
    <glyph glyph-name="afii10100" unicode="&#x453;" horiz-adv-x="497" 
d="M146 570v30l180 150h124v-36c-136 -102 -192 -144 -256 -144h-48zM472 504v-88h-284v-416h-102v504h386z" />
    <glyph glyph-name="afii10101" unicode="&#x454;" horiz-adv-x="592" 
d="M362 294v-84h-192c0 -126 0 -126 138 -126h90l96 24h24v-96c-96 -24 -174 -24 -210 -24c-246 0 -246 132 -246 240v48c0 108 0 240 222 240h48c210 0 210 -120 210 -168l-92 -23c-24 95 -24 95 -142 95c-138 0 -138 0 -138 -126h192z" />
    <glyph glyph-name="afii10102" unicode="&#x455;" horiz-adv-x="544" 
d="M194 84h120c78 0 78 0 78 54c0 35 0 35 -66 51l-108 27c-60 15 -168 39 -168 144c0 54 0 156 228 156c48 0 96 0 192 -24v-96h-24l-96 24h-120c-78 0 -78 0 -78 -54c0 -35 0 -35 66 -51l108 -27c60 -15 168 -39 168 -144c0 -54 0 -156 -228 -156c-48 0 -96 0 -192 24v96
h24z" />
    <glyph glyph-name="afii10103" unicode="&#x456;" horiz-adv-x="274" 
d="M86 486l72 18h30v-504h-102v486zM122 720h30c60 0 60 -36 60 -60v-12c0 -24 0 -60 -60 -60h-30c-60 0 -60 36 -60 60v12c0 24 0 60 60 60z" />
    <glyph glyph-name="afii10104" unicode="&#x457;" horiz-adv-x="274" 
d="M86 486l72 18h30v-504h-102v486zM-7 720h30c60 0 60 -36 60 -60v-12c0 -24 0 -60 -60 -60h-30c-60 0 -60 36 -60 60v12c0 24 0 60 60 60zM251 720h30c60 0 60 -36 60 -60v-12c0 -24 0 -60 -60 -60h-30c-60 0 -60 36 -60 60v12c0 24 0 60 60 60z" />
    <glyph glyph-name="afii10105" unicode="&#x458;" horiz-adv-x="274" 
d="M188 504v-432c0 -132 0 -180 -138 -284l-56 74c92 72 92 72 92 174v450l72 18h30zM122 720h30c60 0 60 -36 60 -60v-12c0 -24 0 -60 -60 -60h-30c-60 0 -60 36 -60 60v12c0 24 0 60 60 60z" />
    <glyph glyph-name="afii10106" unicode="&#x459;" horiz-adv-x="895" 
d="M641 252h-114v-168h114c96 0 96 0 96 84s0 84 -96 84zM160 504h367v-180c36 9 72 18 126 18c192 0 192 -114 192 -174c0 -168 -120 -168 -204 -168h-216v414h-177c-2 -62 -9 -139 -24 -249c-20 -149 -37 -168 -199 -168v82c86 0 96 17 108 104c18 130 24 216 27 321z" />
    <glyph glyph-name="afii10107" unicode="&#x45a;" horiz-adv-x="910" 
d="M656 0h-216v204h-252v-204h-102v504h102v-204h252v204h102v-180c36 9 72 18 126 18c192 0 192 -114 192 -174c0 -168 -120 -168 -204 -168zM656 252h-114v-168h114c96 0 96 0 96 84s0 84 -96 84z" />
    <glyph glyph-name="afii10108" unicode="&#x45b;" horiz-adv-x="676" 
d="M8 540v72h90v96l72 18h30v-114h192v-72h-192v-114c80 60 174 60 198 60c198 0 198 -144 198 -222v-264h-102v234c0 156 0 156 -150 156l-144 -36v-354h-102v540h-90z" />
    <glyph glyph-name="afii10109" unicode="&#x45c;" horiz-adv-x="640" 
d="M206 570v30l200 150h124v-36c-136 -102 -192 -144 -276 -144h-48zM418 265l178 -237v-28h-114c-72 96 -114 152 -114 204h-180v-204h-102v504h102v-204h180c0 52 42 108 114 204h114v-28l-174 -231z" />
    <glyph glyph-name="afii10110" unicode="&#x45e;" horiz-adv-x="618" 
d="M334 570h-36c-68 0 -116 0 -179 84l72 54c33 -44 33 -44 88 -44h74c55 0 55 0 88 44l72 -54c-63 -84 -111 -84 -179 -84zM275 108h94c0 34 -1 34 94 306v90h105v-20c0 -85 0 -85 -23 -141l-166 -447c-45 -109 -123 -112 -201 -112h-52v96h79c57 0 65 0 84 48l36 96h-101
c-160 375 -160 375 -160 480h108v-90c103 -270 103 -270 103 -306z" />
    <glyph glyph-name="afii10193" unicode="&#x45f;" horiz-adv-x="670" 
d="M584 0h-200v-144h-98v144h-200v504h102v-420h294v420h102v-504z" />
    <glyph glyph-name="afii10050" unicode="&#x490;" horiz-adv-x="603" 
d="M482 708v144h96v-240h-366v-612h-108v708h378z" />
    <glyph glyph-name="afii10098" unicode="&#x491;" horiz-adv-x="517" 
d="M394 504v150h98v-238h-304v-416h-102v504h308z" />
    <glyph glyph-name="endash" unicode="&#x2013;" 
d="M104 330h492v-90h-492v90z" />
    <glyph glyph-name="emdash" unicode="&#x2014;" horiz-adv-x="904" 
d="M116 330h672v-90h-672v90z" />
    <glyph glyph-name="quoteleft" unicode="&#x2018;" horiz-adv-x="304" 
d="M212 768l-30 -120v-24h6c42 0 42 -36 42 -60v-24c0 -24 0 -60 -60 -60h-18c-78 0 -78 72 -78 96v12c0 84 54 156 90 204h48v-24z" />
    <glyph glyph-name="quoteright" unicode="&#x2019;" horiz-adv-x="304" 
d="M92 480l30 120v24h-6c-42 0 -42 36 -42 60v24c0 24 0 60 60 60h18c78 0 78 -72 78 -96v-12c0 -84 -54 -156 -90 -204h-48v24z" />
    <glyph glyph-name="quotesinglbase" unicode="&#x201a;" horiz-adv-x="304" 
d="M92 -144l30 120v24h-6c-42 0 -42 36 -42 60v24c0 24 0 60 60 60h18c78 0 78 -72 78 -96v-12c0 -84 -54 -156 -90 -204h-48v24z" />
    <glyph glyph-name="quotedblleft" unicode="&#x201c;" horiz-adv-x="556" 
d="M464 768l-30 -120v-24h6c42 0 42 -36 42 -60v-24c0 -24 0 -60 -60 -60h-18c-78 0 -78 72 -78 96v12c0 84 54 156 90 204h48v-24zM212 768l-30 -120v-24h6c42 0 42 -36 42 -60v-24c0 -24 0 -60 -60 -60h-18c-78 0 -78 72 -78 96v12c0 84 54 156 90 204h48v-24z" />
    <glyph glyph-name="quotedblright" unicode="&#x201d;" horiz-adv-x="556" 
d="M92 480l30 120v24h-6c-42 0 -42 36 -42 60v24c0 24 0 60 60 60h18c78 0 78 -72 78 -96v-12c0 -84 -54 -156 -90 -204h-48v24zM344 480l30 120v24h-6c-42 0 -42 36 -42 60v24c0 24 0 60 60 60h18c78 0 78 -72 78 -96v-12c0 -84 -54 -156 -90 -204h-48v24z" />
    <glyph glyph-name="quotedblbase" unicode="&#x201e;" horiz-adv-x="556" 
d="M92 -144l30 120v24h-6c-42 0 -42 36 -42 60v24c0 24 0 60 60 60h18c78 0 78 -72 78 -96v-12c0 -84 -54 -156 -90 -204h-48v24zM344 -144l30 120v24h-6c-42 0 -42 36 -42 60v24c0 24 0 60 60 60h18c78 0 78 -72 78 -96v-12c0 -84 -54 -156 -90 -204h-48v24z" />
    <glyph glyph-name="dagger" unicode="&#x2020;" 
d="M299 -144v432l9 72v66h-66l-96 -12h-36v108h36l96 -12h66v66l-12 96v36h108v-36l-12 -95v-67h66l96 12h36v-108h-36l-96 12h-66v-66l9 -72v-432h-102z" />
    <glyph glyph-name="daggerdbl" unicode="&#x2021;" horiz-adv-x="724" 
d="M254 246h66v180h-66l-96 -12h-36v108h36l96 -12h66v66l-12 96v36h108v-36l-12 -95v-67h66l96 12h36v-108h-36l-96 12h-66v-180h66l96 12h36v-108h-36l-96 12h-66v-66l9 -72v-168h-102v168l9 72v66h-66l-96 -12h-36v108h36z" />
    <glyph glyph-name="bullet" unicode="&#x2022;" 
d="M542 294v-12c0 -162 -132 -162 -186 -162h-12c-54 0 -186 0 -186 162v12c0 162 132 162 186 162h12c54 0 186 0 186 -162z" />
    <glyph glyph-name="ellipsis" unicode="&#x2026;" horiz-adv-x="820" 
d="M146 144h24c60 0 60 -36 60 -60v-24c0 -24 0 -60 -60 -60h-24c-60 0 -60 36 -60 60v24c0 24 0 60 60 60zM398 144h24c60 0 60 -36 60 -60v-24c0 -24 0 -60 -60 -60h-24c-60 0 -60 36 -60 60v24c0 24 0 60 60 60zM650 144h24c60 0 60 -36 60 -60v-24c0 -24 0 -60 -60 -60
h-24c-60 0 -60 36 -60 60v24c0 24 0 60 60 60z" />
    <glyph glyph-name="perthousand" unicode="&#x2030;" horiz-adv-x="1060" 
d="M332 570v-30c0 -142 -102 -142 -156 -142h-12c-54 0 -156 0 -156 142v30c0 142 102 142 156 142h12c54 0 156 0 156 -142zM110 564v-18c0 -72 0 -72 60 -72s60 0 60 72v18c0 72 0 72 -60 72s-60 0 -60 -72zM692 168v-30c0 -142 -102 -142 -156 -142h-12
c-54 0 -156 0 -156 142v30c0 142 102 142 156 142h12c54 0 156 0 156 -142zM470 162v-18c0 -72 0 -72 60 -72s60 0 60 72v18c0 72 0 72 -60 72s-60 0 -60 -72zM1058 168v-30c0 -142 -102 -142 -156 -142h-12c-54 0 -156 0 -156 142v30c0 142 102 142 156 142h12
c54 0 156 0 156 -142zM836 162v-18c0 -72 0 -72 60 -72s60 0 60 72v18c0 72 0 72 -60 72s-60 0 -60 -72zM602 708v-24c0 -68 -36 -116 -72 -164l-264 -352c-54 -71 -54 -71 -54 -144v-24h-114v24c0 68 36 116 72 164l264 352c54 71 54 71 54 144v24h114z" />
    <glyph glyph-name="guilsinglleft" unicode="&#x2039;" horiz-adv-x="376" 
d="M266 0l-180 240v24l180 240h30v-96l-108 -144l18 -24c72 -96 102 -136 102 -204v-36h-42z" />
    <glyph glyph-name="guilsinglright" unicode="&#x203a;" horiz-adv-x="376" 
d="M110 504l180 -240v-24l-180 -240h-30v96l108 144l-18 24c-72 96 -102 136 -102 204v36h42z" />
    <glyph glyph-name="fraction" unicode="&#x2044;" 
d="M12 -42l624 832l52 -40l-624 -832z" />
    <glyph glyph-name="uni2074" unicode="&#x2074;" 
d="M290 510h-258v90l90 120c39 52 39 52 39 113v19h93v-14c0 -62 -18 -86 -42 -118l-93 -124v-14h171v114l48 12h36v-126h76v-72h-76v-72h-84v72z" />
    <glyph glyph-name="Euro" unicode="&#x20ac;" 
d="M38 384v60h96c0 109 0 280 264 280c60 0 112 0 264 -38v-104h-36l-144 36h-42c-186 0 -186 -6 -186 -174h270v-60h-270v-60h240v-60h-240c0 -168 0 -174 186 -174h42l144 36h36v-104c-152 -38 -204 -38 -264 -38c-264 0 -264 171 -264 280h-96v60h96v60h-96z" />
    <glyph glyph-name="afii61352" unicode="&#x2116;" horiz-adv-x="1132" 
d="M656 708v-708h-164c-252 504 -252 504 -252 576h-34v-576h-102v708h164c252 -504 252 -504 252 -576h34v576h102zM732 416v32c0 52 0 160 160 160h32c160 0 160 -108 160 -160v-32c0 -52 0 -160 -160 -160h-32c-160 0 -160 108 -160 160zM818 432c0 -104 0 -104 90 -104
s90 0 90 104s0 104 -90 104s-90 0 -90 -104zM762 100v80h292v-80h-292z" />
    <glyph glyph-name="trademark" unicode="&#x2122;" horiz-adv-x="1216" 
d="M20 792h651c131 -294 131 -294 131 -336h26c0 42 0 42 131 336h159v-408h-89v336h-27c0 -42 0 -42 -136 -336h-102c-136 294 -136 294 -136 336h-27v-336h-89v336h-210v-336h-90v336h-192v72z" />
    <glyph glyph-name="Omega" unicode="&#x2126;" 
d="M542 294v-12c0 -162 -132 -162 -186 -162h-12c-54 0 -186 0 -186 162v12c0 162 132 162 186 162h12c54 0 186 0 186 -162z" />
    <glyph glyph-name="partialdiff" unicode="&#x2202;" 
d="M542 294v-12c0 -162 -132 -162 -186 -162h-12c-54 0 -186 0 -186 162v12c0 162 132 162 186 162h12c54 0 186 0 186 -162z" />
    <glyph glyph-name="Delta" unicode="&#x2206;" 
d="M542 294v-12c0 -162 -132 -162 -186 -162h-12c-54 0 -186 0 -186 162v12c0 162 132 162 186 162h12c54 0 186 0 186 -162z" />
    <glyph glyph-name="product" unicode="&#x220f;" 
d="M542 294v-12c0 -162 -132 -162 -186 -162h-12c-54 0 -186 0 -186 162v12c0 162 132 162 186 162h12c54 0 186 0 186 -162z" />
    <glyph glyph-name="summation" unicode="&#x2211;" 
d="M542 294v-12c0 -162 -132 -162 -186 -162h-12c-54 0 -186 0 -186 162v12c0 162 132 162 186 162h12c54 0 186 0 186 -162z" />
    <glyph glyph-name="minus" unicode="&#x2212;" 
d="M104 384h492v-66h-492v66z" />
    <glyph glyph-name="uni2215" unicode="&#x2215;" 
d="M12 -42l624 832l52 -40l-624 -832z" />
    <glyph glyph-name="uni2219" unicode="&#x2219;" horiz-adv-x="340" 
d="M146 354h48c60 0 60 -36 60 -60v-24c0 -24 0 -60 -60 -60h-48c-60 0 -60 36 -60 60v24c0 24 0 60 60 60z" />
    <glyph glyph-name="radical" unicode="&#x221a;" 
d="M542 294v-12c0 -162 -132 -162 -186 -162h-12c-54 0 -186 0 -186 162v12c0 162 132 162 186 162h12c54 0 186 0 186 -162z" />
    <glyph glyph-name="infinity" unicode="&#x221e;" 
d="M542 226v-12c0 -162 -132 -162 -186 -162h-12c-54 0 -186 0 -186 162v12c0 162 132 162 186 162h12c54 0 186 0 186 -162z" />
    <glyph glyph-name="integral" unicode="&#x222b;" 
d="M542 294v-12c0 -162 -132 -162 -186 -162h-12c-54 0 -186 0 -186 162v12c0 162 132 162 186 162h12c54 0 186 0 186 -162z" />
    <glyph glyph-name="approxequal" unicode="&#x2248;" 
d="M104 120l-48 36c81 108 138 108 174 108c22 0 58 0 138 -60c64 -48 88 -48 102 -48c24 0 63 0 126 84l48 -36c-81 -108 -138 -108 -174 -108c-22 0 -58 0 -138 60c-64 48 -88 48 -102 48c-24 0 -63 0 -126 -84zM104 324l-48 36c81 108 138 108 174 108c22 0 58 0 138 -60
c64 -48 88 -48 102 -48c24 0 63 0 126 84l48 -36c-81 -108 -138 -108 -174 -108c-22 0 -58 0 -138 60c-64 48 -88 48 -102 48c-24 0 -63 0 -126 -84z" />
    <glyph glyph-name="notequal" unicode="&#x2260;" 
d="M62 -42l170 228h-152v66h201l50 66h-251v66h300l204 274l54 -40l-176 -234h158v-66h-207l-50 -66h257v-66h-306l-199 -268z" />
    <glyph glyph-name="lessequal" unicode="&#x2264;" 
d="M497 692l40 -52l-301 -226c89 -66 301 -226 301 -226l-40 -52l-339 254v48zM104 66h492v-66h-492v66z" />
    <glyph glyph-name="greaterequal" unicode="&#x2265;" 
d="M163 640l40 52l339 -254v-48l-339 -254l-40 52s212 160 301 226zM104 66h492v-66h-492v66z" />
    <glyph glyph-name="lozenge" unicode="&#x25ca;" 
d="M620 334l-246 -334h-48l-246 334v40l246 334h48l246 -334v-40zM149 354l201 -273l201 273l-201 272z" />
    <glyph glyph-name="parenleft.case" horiz-adv-x="340" 
d="M380 -162h-102c-192 144 -192 300 -192 444v144c0 144 0 300 192 444h102v-36c-180 -135 -180 -135 -180 -324v-312c0 -189 0 -189 180 -324v-36z" />
    <glyph glyph-name="parenright.case" horiz-adv-x="340" 
d="M74 -162h-102v36c180 135 180 135 180 324v312c0 189 0 189 -180 324v36h102c192 -144 192 -300 192 -444v-144c0 -144 0 -300 -192 -444z" />
    <glyph glyph-name="hyphen.case" horiz-adv-x="340" 
d="M20 399h300v-90h-300v90z" />
    <glyph glyph-name="bracketleft.case" horiz-adv-x="340" 
d="M314 -90v-72h-234v1032h234v-72h-126v-888h126z" />
    <glyph glyph-name="bracketright.case" horiz-adv-x="340" 
d="M26 798v72h234v-1032h-234v72h126v888h-126z" />
    <glyph glyph-name="braceleft.case" horiz-adv-x="340" 
d="M86 498c0 180 0 324 192 372h102v-54l-48 -12c-132 -33 -132 -33 -132 -114v-126c0 -126 0 -141 -84 -198v-24c84 -63 84 -78 84 -198v-126c0 -81 0 -81 132 -114l48 -12v-54h-102c-192 48 -192 192 -192 372c0 102 0 102 -84 102h-12v84h12c84 0 84 0 84 102z" />
    <glyph glyph-name="braceright.case" horiz-adv-x="340" 
d="M254 498c0 -102 0 -102 84 -102h12v-84h-12c-84 0 -84 0 -84 -102c0 -180 0 -324 -192 -372h-102v54l48 12c132 33 132 33 132 114v126c0 120 0 135 84 198v24c-84 57 -84 72 -84 198v126c0 81 0 81 -132 114l-48 12v54h102c192 -48 192 -192 192 -372z" />
    <glyph glyph-name="guillemotleft.case" horiz-adv-x="604" 
d="M266 102l-180 240v24l180 240h30v-96l-108 -144l18 -24c72 -96 102 -136 102 -204v-36h-42zM494 102l-180 240v24l180 240h30v-96l-108 -144l18 -24c72 -96 102 -136 102 -204v-36h-42z" />
    <glyph glyph-name="uni00AD.case" horiz-adv-x="340" 
d="M20 399h300v-90h-300v90z" />
    <glyph glyph-name="guillemotright.case" horiz-adv-x="604" 
d="M338 606l180 -240v-24l-180 -240h-30v96l108 144l-18 24c-72 96 -102 136 -102 204v36h42zM110 606l180 -240v-24l-180 -240h-30v96l108 144l-18 24c-72 96 -102 136 -102 204v36h42z" />
    <glyph glyph-name="endash.case" 
d="M104 399h492v-90h-492v90z" />
    <glyph glyph-name="emdash.case" horiz-adv-x="904" 
d="M116 399h672v-90h-672v90z" />
    <glyph glyph-name="guilsinglleft.case" horiz-adv-x="376" 
d="M266 102l-180 240v24l180 240h30v-96l-108 -144l18 -24c72 -96 102 -136 102 -204v-36h-42z" />
    <glyph glyph-name="guilsinglright.case" horiz-adv-x="376" 
d="M110 606l180 -240v-24l-180 -240h-30v96l108 144l-18 24c-72 96 -102 136 -102 204v36h42z" />
    <glyph glyph-name="uni25AF" unicode="&#x25af;" horiz-adv-x="664" 
d="M86 0v708h492v-708h-492zM152 66h360v576h-360v-576z" />
    </font>
</defs>
</svg>
